<?xml version="1.0" standalone="no"?>
<!DOCTYPE svg PUBLIC "-//W3C//DTD SVG 1.1//EN" "http://www.w3.org/Graphics/SVG/1.1/DTD/svg11.dtd" >
<svg>
<metadata>
Created by FontForge 20120731 at Thu Oct 23 09:58:39 2014
 By Orthosie Webhosting
</metadata>
<defs>
<font id="ErasBoldThinRegular" horiz-adv-x="17" >
  <font-face 
    font-family="ErasBoldThinRegular"
    font-weight="400"
    font-stretch="normal"
    units-per-em="1000"
    panose-1="0 0 6 0 0 0 0 2 0 0"
    ascent="800"
    descent="-200"
    x-height="458"
    cap-height="619"
    bbox="0 -214 1017 845"
    underline-thickness="50"
    underline-position="-55"
    unicode-range="U+0020-F002"
  />
<missing-glyph 
 />
    <glyph glyph-name=".notdef" 
 />
    <glyph glyph-name="glyph1" horiz-adv-x="0" 
 />
    <glyph glyph-name="glyph2" horiz-adv-x="21" 
 />
    <glyph glyph-name="space" unicode=" " 
 />
    <glyph glyph-name="space" unicode="&#xa0;" 
 />
    <glyph glyph-name="exclam" unicode="!" horiz-adv-x="187" 
d="M3 146h155v-144h-155v144v0v0zM3 605h155v-387h-155v387v0v0z" />
    <glyph glyph-name="quotedbl" unicode="&#x22;" horiz-adv-x="277" 
d="M9 612h80v-175h-80v175v0v0zM170 612h79v-175h-79v175v0v0z" />
    <glyph glyph-name="numbersign" unicode="#" horiz-adv-x="565" 
d="M124 496l18 116h124l-18 -116h98l19 116h124l-19 -116h68l-18 -131h-56l-18 -116h61l-18 -124h-61l-19 -123h-124l18 123h-105l-19 -123h-123l18 123h-67l19 124h61l19 116h-68l18 131h68v0v0zM334 365h-98l-19 -116h99l18 116v0v0z" />
    <glyph glyph-name="dollar" unicode="$" horiz-adv-x="393" 
d="M121 612v88h134v-88q5 -1 10 -1.5t10 -1.5t10.5 -1.5t10.5 -1.5q2 0 3.5 -1t3.5 -1q1 -1 2 -1h2q3 -1 5.5 -2t4.5 -2q3 -1 5.5 -2t4.5 -3q2 -1 4.5 -2t5.5 -3l13 -138q-14 5 -27.5 8t-24.5 5q-12 2 -22.5 3t-18.5 1q-10 0 -18.5 -2t-13.5 -6q-7 -4 -9.5 -9.5t-2.5 -12.5
q0 -10 5.5 -22t15.5 -27q11 -15 27 -32t38 -37q1 -1 2.5 -2t2.5 -3q1 -1 2.5 -2t2.5 -3q1 -1 2.5 -3t3.5 -4q1 -1 2.5 -3t2.5 -4q8 -11 15.5 -24.5t14.5 -30.5q7 -16 11 -33.5t5 -34.5v-2v-2v-2v-2v-4v-3q-1 -2 -1 -3.5v-3.5v-3t-1 -3q0 -2 -0.5 -3.5t-0.5 -3.5
q-3 -17 -10.5 -33.5t-20.5 -33.5q-13 -16 -32 -30t-45 -26v-107h-128v94q-17 2 -31.5 4.5t-27.5 5.5t-24.5 7.5t-22.5 10.5l-18 152q20 -9 38.5 -16t33.5 -12q16 -4 28 -6.5t22 -2.5q11 0 19 2.5t13 6.5q5 5 7.5 11t2.5 13q0 8 -3 17.5t-8 20.5q-6 11 -13.5 23t-18.5 24
q-4 5 -8 9.5t-9 8.5q-4 5 -8.5 9.5t-9.5 8.5q-16 14 -29.5 29.5t-24.5 34.5q-10 19 -16 38.5t-8 39.5q0 2 -0.5 3t-0.5 3q-1 1 -1 2.5v2.5v3v3v2.5v2.5q0 23 6.5 45.5t20.5 43.5t35 36t50 23v1v0z" />
    <glyph glyph-name="percent" unicode="%" horiz-adv-x="714" 
d="M547 379h9q33 -1 58 -16.5t42 -45.5q17 -31 25.5 -64.5t8.5 -71.5v-5.5v-4.5v-2v-2q-1 -1 -1 -2v-2q-2 -34 -11 -64.5t-25 -57.5t-39.5 -40t-53.5 -13q-37 0 -64.5 14t-46.5 43q-18 29 -27.5 61.5t-10.5 67.5v1.5v1.5v1.5v1.5v1.5v1.5v0.5v1.5v3.5v2.5q2 35 11 67t27 61
t42.5 44t55.5 15v1v0zM554 300q-12 -1 -21 -10.5t-16 -27.5q-6 -18 -9.5 -38t-3.5 -43q0 -22 3.5 -40.5t9.5 -35.5q7 -16 16 -24t21 -8q10 0 18 8.5t12 26.5q5 17 8 36.5t3 40.5v0.5v1.5v2v2q-1 20 -4 38.5t-8 35.5q-4 17 -12 25.5t-17 8.5v1v0zM430 612h80l-240 -610h-88
l248 610v0v0zM145 619h8q29 -1 51.5 -15.5t38.5 -43.5q17 -29 25 -62t8 -69v-21q0 -35 -7.5 -66.5t-22.5 -60.5q-15 -28 -38.5 -42t-55.5 -14h-0.5h-0.5l-1 -1v0h-1.5h-0.5h-0.5h-0.5v-1v0h-1.5h-0.5q-35 0 -61.5 15t-44.5 45q-17 30 -26.5 63.5t-9.5 70.5v0v1v0v0v0.5v1.5
v1.5v1.5v0.5v1.5v3.5v2.5q2 35 11 67t26 61t41.5 44t54.5 15l9 1v0v0zM145 540q-14 -1 -23.5 -10.5t-14.5 -27.5t-8 -38t-3 -43q0 -22 3.5 -40.5t9.5 -35.5q7 -16 16 -24t20 -8q12 0 21 8t15 24q5 16 8 34t3 37v4v4v2v3q-1 1 -1 2v2q-1 20 -4.5 38.5t-9.5 34.5q-6 17 -14 25
t-18 8v1v0z" />
    <glyph glyph-name="ampersand" unicode="&#x26;" horiz-adv-x="606" 
d="M130 394q-1 0 -1.5 0.5t-0.5 1.5l-1.5 1.5l-1.5 1.5q-1 2 -1.5 4t-1.5 4q-7 12 -11.5 24t-7.5 24q-4 12 -5.5 23t-1.5 21q0 29 12 53t35 42t56.5 27.5t76.5 9.5q13 0 26.5 -0.5t27.5 -2.5q15 -1 30 -4t31 -6l12 -136q-3 0 -6 1l-6 2q-2 1 -5 1.5t-6 1.5q-9 2 -17.5 4.5
t-16.5 3.5q-8 2 -15 2.5t-14 0.5q-13 0 -24 -3t-19 -9q-9 -6 -13 -14t-4 -19q0 -5 1 -10.5t3 -11.5t4.5 -12t6.5 -13l113 -158v87h135q0 -39 -2 -69t-6 -53q-4 -22 -13 -43t-23 -40l101 -129h-180l-31 43q-2 -1 -3.5 -2.5t-2.5 -3.5q-1 0 -1.5 -0.5l-1.5 -1.5t-2.5 -1.5
t-2.5 -1.5t-2 -1.5l-3 -1.5q-9 -6 -18 -11t-18 -9q-10 -4 -19 -7.5t-18 -4.5q-18 -5 -35 -8t-34 -3q-44 0 -81 15.5t-66 47.5t-43.5 69t-14.5 78v10.5v11.5q1 5 2.5 10.5t2.5 11.5q5 21 15 41.5t25 40.5q16 20 37 37.5t48 31.5v1v0zM291 153l-92 125q-1 -1 -2 -2.5t-1 -2.5
l-2 -2l-2 -2l-2 -2t-2 -1q-1 -1 -1.5 -2t-1.5 -2q-9 -9 -15.5 -18t-11.5 -18t-7.5 -16.5t-2.5 -13.5q0 -8 1.5 -16t3.5 -16q3 -7 8.5 -14t13.5 -12l10 -8t12 -7q4 -2 8.5 -3.5t9.5 -2.5q2 -1 4.5 -1.5t4.5 -0.5h1.5h0.5h2h2h4h4t4.5 1t5.5 2q5 2 11 4.5t12 6.5l10.5 10.5
t9.5 12.5v1v0z" />
    <glyph glyph-name="quotesingle" unicode="'" horiz-adv-x="187" 
d="M47 619h111l-80 -168h-74l43 168v0v0z" />
    <glyph glyph-name="parenleft" unicode="(" horiz-adv-x="203" 
d="M61 619h118q-10 -43 -17.5 -88t-13.5 -92q-5 -48 -8 -96t-3 -97q0 -25 1 -51.5t2 -52.5t3.5 -52.5t5.5 -52.5q2 -13 3.5 -25.5t2.5 -25.5q2 -13 3.5 -26t3.5 -26q4 -26 8 -52.5t9 -51.5l-118 -1q-13 41 -23 84.5t-18 89.5q-7 48 -11.5 97t-5.5 99v6v6v6.5v7.5v20v20v10
t1 11q0 5 0.5 10t0.5 10q2 41 6.5 81.5t11.5 80.5q8 40 17 77.5t21 72.5v1v0z" />
    <glyph glyph-name="parenright" unicode=")" horiz-adv-x="221" 
d="M9 619h122q13 -43 23.5 -88t17.5 -90q8 -46 13 -91.5t6 -91.5v-5.5t1 -4.5v-5.5v-5.5v-10v-10q0 -47 -3.5 -94.5t-11.5 -95.5q-7 -46 -18.5 -94t-27.5 -96l-122 -1q11 38 19 80.5t14 89.5q6 48 9 97t4 99v3v3v2.5v2.5v4.5v5.5v12v12v6v7q-1 3 -1 6v6q-1 47 -5 93t-9 91
t-13 85.5t-18 76.5v1v0z" />
    <glyph glyph-name="asterisk" unicode="*" horiz-adv-x="327" 
d="M113 518l-7 94h86l-5 -94l73 43l37 -86l-86 -31l68 -79l-62 -58l-67 94l-69 -94l-62 58l74 79l-92 31l31 86l81 -43v0v0z" />
    <glyph glyph-name="plus" unicode="+" horiz-adv-x="459" 
d="M156 314v154h129v-154h149v-161h-149v-151h-129v151h-149v161h149v0v0z" />
    <glyph glyph-name="comma" unicode="," horiz-adv-x="254" 
d="M70 117h155l-112 -231h-110l67 231v0v0z" />
    <glyph glyph-name="hyphen" unicode="-" horiz-adv-x="246" 
d="M4 307h211v-132h-211v132v0v0z" />
    <glyph glyph-name="period" unicode="." horiz-adv-x="180" 
d="M9 161h143v-159h-143v159v0v0z" />
    <glyph glyph-name="slash" unicode="/" horiz-adv-x="435" 
d="M255 619h154l-253 -617h-153l252 617v0v0z" />
    <glyph glyph-name="zero" unicode="0" horiz-adv-x="500" 
d="M234 626q58 -1 102 -24.5t73 -70.5q29 -46 44.5 -98.5t15.5 -110.5v-15q0 -61 -15 -116t-44 -105q-29 -49 -71.5 -73.5t-98.5 -24.5q-57 0 -100 23.5t-72 71.5q-30 48 -45.5 102t-17.5 112v2.5v2.5v3.5v2.5v0.5v1.5v2v2q1 58 16 111t43 102q29 48 71 72.5t99 25.5v1v0z
M240 496q-19 -1 -33.5 -16t-25.5 -45t-16.5 -64t-5.5 -72q0 -34 5.5 -66t16.5 -61q11 -28 25.5 -42.5t33.5 -14.5h0.5h1.5v0h1v0.5v0.5h0.5h1.5h0.5h1.5q18 3 31.5 19t22.5 46q10 29 15 61.5t6 67.5v0v1v0v0v0.5v1.5q0 35 -5 66t-15 59q-10 29 -24.5 43t-34.5 14l-3 1v0v0z
" />
    <glyph glyph-name="one" unicode="1" horiz-adv-x="277" 
d="M93 444l-86 -65v161l86 72h162v-610h-162v442v0v0z" />
    <glyph glyph-name="two" unicode="2" horiz-adv-x="459" 
d="M224 132h204v-130h-421v130l198 225q2 1 3 2.5t2 3.5l2 2t2 3q0 1 1 2.5t2 2.5q2 3 3.5 5.5t2.5 5.5q1 2 1.5 3.5t1.5 2.5q2 5 4.5 10t3.5 10q2 3 2.5 6.5t1.5 7.5t1.5 7.5t0.5 7.5q0 11 -4.5 20t-13.5 16q-9 8 -24 11.5t-37 3.5q-12 0 -27 -1.5t-32 -3.5
q-18 -2 -39 -6.5t-44 -11.5l13 130q28 8 54 14.5t50 10.5q25 5 47 7t42 2q51 0 89.5 -12t63.5 -36t37.5 -52.5t12.5 -62.5q0 -15 -2.5 -30.5t-7.5 -32.5q-5 -16 -12 -32.5t-16 -33.5q-1 -3 -2.5 -5.5t-2.5 -4.5q0 -1 -1 -1.5t-1 -1.5q-1 -1 -2 -2.5t-2 -3.5q-15 -22 -31 -44
t-34 -45t-40.5 -48t-49.5 -52v1v0z" />
    <glyph glyph-name="three" unicode="3" horiz-adv-x="459" 
d="M24 482l19 137q20 3 39.5 6t37.5 5t35 3t33 1q58 0 100 -12t69 -35q26 -24 41 -49.5t17 -54.5v-2.5v-3.5v-1.5v-0.5v-1.5v-1.5v-2v-2q-1 -2 -1 -3v-2v-4v-4q-2 -21 -10 -41t-21 -39t-30.5 -32.5t-38.5 -22.5q27 -5 48 -18.5t36 -35.5q16 -22 23.5 -45.5t7.5 -48.5v-2.5
v-3.5q-1 -1 -1 -2.5v-3.5v-3v-3q-1 -2 -1 -3.5v-3.5q-5 -30 -21.5 -57t-45.5 -51t-72 -35.5t-100 -11.5q-18 0 -37.5 1.5t-41.5 4.5q-22 2 -44.5 6t-46.5 11l-13 146q23 -10 43.5 -16.5t39.5 -11.5q19 -4 35.5 -6t30.5 -2q25 0 43 4.5t31 13.5t20.5 19.5t9.5 21.5v0.5t1 1.5
v0.5v1.5v2v2v0.5v1.5q-1 0 -1 0.5v1.5v3.5v2.5q-3 12 -12.5 24t-25.5 22q-16 11 -37.5 16.5t-49.5 5.5h-2h-2h-2h-2q-4 0 -9.5 -0.5t-10.5 -1.5t-10 -1.5t-10 -1.5l-1 -0.5l-1 -0.5q-1 0 -2 -0.5t-2 -0.5h-2.5h-3.5v131q1 -1 2 -1.5t2 -0.5h1.5h1.5q0 -1 0.5 -1h1.5l12 -2
t13 -2q3 -1 5.5 -1.5t5.5 -0.5h5.5h5.5q24 0 42.5 4t31.5 13q13 8 20.5 18t8.5 20v0.5v1.5v1.5v1.5q0 11 -6.5 20.5t-20.5 18.5q-13 8 -32 12.5t-44 4.5q-11 0 -23 -1.5t-26 -3.5q-13 -2 -27 -6t-29 -9v1v0z" />
    <glyph glyph-name="four" unicode="4" horiz-adv-x="483" 
d="M175 619h198v-334h79v-124h-79v-159h-156v159h-216v153l174 305v0v0zM236 489l-118 -204h118v204v0v0z" />
    <glyph glyph-name="five" unicode="5" horiz-adv-x="450" 
d="M15 619h377v-130h-210v-110q1 0 1.5 -0.5l0.5 -0.5h2.5h1.5h1.5t1.5 1h2h2q3 0 5.5 0.5t4.5 0.5q2 1 4.5 1h5.5h4t5 1h4h4q44 0 78.5 -14.5t58.5 -43.5q25 -28 38 -59.5t14 -66.5v-2v-2v-1.5v-0.5v-2.5v-3.5v-1.5v-0.5v-1.5v-1.5q-2 -37 -18.5 -70t-48.5 -63t-79.5 -44
t-112.5 -14q-16 0 -32.5 1.5t-33.5 3.5q-18 3 -36.5 6t-38.5 7l-18 145q18 -7 34.5 -13t31.5 -9q16 -4 29 -5.5t26 -1.5q26 0 47 5.5t34 17.5q14 12 20.5 25t6.5 27v0.5v1.5v1.5v1.5q-1 14 -9 26.5t-23 23.5t-36.5 17t-50.5 6h-0.5h-1.5h-2h-1h-1.5h-1.5h-1.5h-1.5
q-9 0 -19 -1t-21 -3l-12 -2t-11 -2q-6 -2 -12 -3t-12 -3v356v0v0z" />
    <glyph glyph-name="six" unicode="6" horiz-adv-x="493" 
d="M158 619h198q-5 -7 -9.5 -14t-8.5 -13q-4 -7 -8.5 -13.5t-8.5 -13.5q-34 -52 -62 -103t-50 -100t-33 -89t-11 -72q0 -19 4.5 -33t13.5 -24t23 -15t33 -5q14 0 25 5.5t19 17.5q7 11 10.5 24t3.5 27v2v2q-1 1 -1 2v2v2v2q-1 0 -1 1v2q-1 12 -6.5 23.5t-13.5 21.5
q-8 11 -19.5 16t-25.5 5h-5.5h-4.5q-3 0 -6 -0.5t-6 -1.5l49 124h2h2h2h2h4t4 1h3.5h3.5h3h3h3.5t2.5 1h3.5h3.5q41 0 71.5 -14t52.5 -43q22 -28 32.5 -60t10.5 -67v-2.5v-3.5q-1 -1 -1 -2.5v-3.5v-2.5v-2.5v-3v-3q-4 -38 -21 -72.5t-46 -66.5q-29 -31 -72.5 -46t-99.5 -15
q-55 0 -96 13t-69 40q-29 27 -43 65t-14 87q0 40 10 86.5t29 99.5t48 111t67 120v1v0z" />
    <glyph glyph-name="seven" unicode="7" horiz-adv-x="450" 
d="M236 489h-229v130h414v-144l-185 -473h-198l198 487v0v0z" />
    <glyph glyph-name="eight" unicode="8" horiz-adv-x="500" 
d="M116 329q-21 8 -37 20.5t-28 31.5q-11 19 -17 39t-6 41v6v6t0.5 6t1.5 6q5 28 20 53.5t40 48.5q26 23 62.5 34.5t83.5 11.5l11 1q45 -1 80 -13t59 -35q25 -24 38.5 -49.5t17.5 -53.5v-5.5v-4.5v-2.5t1 -2.5v-3v-2v-1.5v-0.5v-1.5v-1.5v-1.5v-0.5v-1.5v-1.5
q-1 -19 -7 -37.5t-17 -35.5t-26.5 -30t-35.5 -22q25 -7 44.5 -20.5t34.5 -34.5q16 -21 24.5 -43.5t10.5 -46.5v-2t1 -1v-2v-2v-2v-1v-2v-2v-1.5v-0.5v0v0v-1v0q-1 -32 -14.5 -61.5t-40.5 -56.5q-28 -27 -71.5 -39.5t-105.5 -12.5q-56 0 -98 12.5t-71 38.5q-28 26 -44.5 55
t-18.5 60q-1 2 -1 4v4v4v4q0 23 7.5 45.5t20.5 43.5q14 21 34 36.5t47 24.5v1v0zM247 264q-19 -1 -35 -6.5t-27 -16.5q-11 -10 -17.5 -22t-8.5 -25v-1.5v-1.5v-1.5v-0.5q2 -14 8.5 -27t16.5 -24q11 -11 26.5 -16.5t36.5 -5.5q15 0 27 5.5t20 15.5q8 11 12.5 23t5.5 25v0.5
v1.5v1.5v1.5v2v2v2v2q-1 12 -5.5 23t-12.5 21q-8 11 -20 16t-27 5v1v0zM247 511q-16 -1 -29 -5.5t-22 -13.5t-14.5 -18t-7.5 -20v-1.5v-0.5q-1 -1 -1 -1.5v-1.5v-2.5v-3.5v-2v-2v-2v-2q2 -11 6.5 -21.5t11.5 -19.5q8 -9 18.5 -13.5t24.5 -4.5h1.5h1.5h0.5t1.5 1h0.5h1.5h1.5
h1.5h0.5t1.5 1h0.5h0.5q12 2 22.5 7t17.5 14q8 9 13 19t6 20v1.5v1.5v0.5v1.5v2v2v2v2v2v2q-1 10 -5 19t-12 18q-8 8 -18 12.5t-24 5.5v1v0z" />
    <glyph glyph-name="nine" unicode="9" horiz-adv-x="485" 
d="M171 458q-1 -1 -1 -2v-2q-1 -1 -1.5 -2t-0.5 -2q-1 -3 -1.5 -5.5t-1.5 -4.5q-1 -3 -1.5 -5.5t-0.5 -4.5q-1 -2 -1.5 -4t-0.5 -4v-2.5v-3.5v-2.5v-3.5v-1.5v-0.5q0 -1 0.5 -1.5t0.5 -1.5q2 -10 6.5 -19t11.5 -17q8 -8 20 -12t30 -4h4h4h3t2 1h2.5h2.5h0.5h0.5h0.5h0.5v0
l1 1h0.5h0.5h1.5h1.5h0.5h1.5h1.5t1.5 1h1.5h1.5l-61 -121q-2 -1 -3.5 -2t-3.5 -1h-1.5h-1.5q-1 -1 -1.5 -1h-1.5l-10 -2t-9 -2q-5 -1 -9.5 -1h-8.5q-37 0 -64.5 13.5t-47.5 40.5q-19 27 -29 57.5t-10 64.5v9.5t1 8.5q0 5 0.5 9.5t1.5 8.5q5 36 22.5 69.5t45.5 64.5
q28 30 68 45.5t92 15.5q60 0 102.5 -14.5t67.5 -43.5q26 -29 39.5 -61t17.5 -67v-7.5v-6.5v-3t1 -3v-3.5v-3.5v-2.5v-2.5q-1 -2 -1 -3v-3v-2.5v-2.5v-3v-3q-1 -9 -1.5 -17t-2.5 -16q-1 -8 -2.5 -15.5t-3.5 -14.5q-5 -19 -14 -47t-22 -66q-13 -37 -40 -92.5t-67 -128.5
l-198 1l4 6l4 6t4 6.5t4 6.5q5 7 9 13.5t8 13.5q2 3 3.5 6t3.5 6q2 2 3.5 5t3.5 6q1 2 2.5 4t2.5 4q2 4 4.5 8t5.5 8q20 34 39 67.5t37 67.5q17 34 29 66t19 62q0 2 0.5 3.5t1.5 2.5q0 2 0.5 4t1.5 4v4t1 5q0 2 0.5 4t0.5 4v8.5v7.5q0 19 -4.5 34t-13.5 26q-10 11 -20.5 18
t-21.5 9h-1.5t-0.5 1h-1.5h-1.5h-1.5h-0.5h-1.5h-1.5q-9 0 -17 -3t-16 -8t-14.5 -12.5t-11.5 -18.5v1v0z" />
    <glyph glyph-name="colon" unicode=":" horiz-adv-x="180" 
d="M9 161h143v-159h-143v159v0v0zM3 468h142v-161h-142v161v0v0z" />
    <glyph glyph-name="semicolon" unicode=";" horiz-adv-x="246" 
d="M64 117h155l-112 -231h-104l61 231v0v0zM58 468h142v-161h-142v161v0v0z" />
    <glyph glyph-name="less" unicode="&#x3c;" horiz-adv-x="451" 
d="M5 321l421 190v-182l-310 -94l310 -89v-188l-421 195v168v0v0z" />
    <glyph glyph-name="equal" unicode="=" horiz-adv-x="451" 
d="M426 204v-159h-421v159h421v0v0zM5 271v159h421v-159h-421v0v0z" />
    <glyph glyph-name="greater" unicode="&#x3e;" horiz-adv-x="451" 
d="M314 235l-309 86v190l421 -190v-175l-421 -188v181l309 96v0v0z" />
    <glyph glyph-name="question" unicode="?" horiz-adv-x="410" 
d="M259 153v-151h-161v151h161v0v0zM104 190v0.5v1.5q-1 1 -1 1.5v1.5v3.5v2.5v1.5v1.5q-1 0 -1 0.5v1.5v3.5v2.5q0 38 4.5 66t14.5 44q9 17 19.5 31t22.5 26q2 2 3.5 4t3.5 4t3.5 4t3.5 4q4 5 7.5 9.5t7.5 9.5q0 2 0.5 3.5t1.5 2.5q1 2 1.5 3.5t1.5 3.5t1 3.5v2.5v1.5
t1 1.5v1.5v1.5q0 11 -6 20t-18 16q-13 8 -28.5 11.5t-34.5 3.5q-12 0 -24 -1.5t-26 -4.5t-28.5 -7t-28.5 -10l13 145h6t6 1q3 0 6.5 0.5t7.5 1.5q6 1 12.5 2t12.5 2q7 0 13.5 1t13.5 2t14.5 1.5t14.5 0.5q7 1 14.5 1.5t14.5 0.5h3.5t2.5 1h3.5h2.5h3.5h3.5h3h3q38 0 72 -6.5
t65 -20.5q31 -13 47.5 -39.5t19.5 -65.5v-18q0 -28 -5 -50.5t-16 -40.5q-10 -18 -21 -33.5t-24 -29.5q-3 -4 -6 -7.5t-5 -6.5l-4 -4l-4 -4l-2 -2l-2 -2q-8 -11 -16 -22.5t-14 -22.5q-7 -11 -10 -24t-3 -27v-1.5v-1.5v-0.5t1 -0.5v-1.5v-0.5v-2v-2v-0.5t1 -0.5v-1v0l-149 1v0
v0z" />
    <glyph glyph-name="at" unicode="@" horiz-adv-x="666" 
d="M317 634q77 -1 135 -19.5t97 -55.5q38 -37 61 -77t30 -84q1 -6 1.5 -11.5t1.5 -10.5v-5.5t1 -4.5v-5.5v-5.5q0 -39 -11 -73.5t-33 -65.5t-53 -47t-69 -17l-124 1v147q-10 -4 -19.5 -7.5t-17.5 -7.5t-15 -8t-12 -8q-3 -2 -5.5 -4t-4.5 -4q-3 -3 -4.5 -5t-3.5 -4
q-3 -4 -4.5 -8t-1.5 -7q0 -4 2 -7t6 -6t10 -4t13 -1h4.5t4.5 1h3t3 1q1 0 2.5 0.5t2.5 1.5v0h1v0v0v0h1h3t2 1h1.5t1.5 1h1.5h0.5l-18 -72q-1 0 -1.5 -0.5l-0.5 -0.5q-1 -1 -1.5 -1h-1.5h-0.5h-1.5q0 -1 -0.5 -1h-1.5q-2 -1 -4 -1.5t-4 -0.5h-2.5h-2.5q0 -1 -0.5 -1h-0.5
h-1.5h-1.5t-2.5 -0.5t-2.5 -0.5q-1 -1 -2.5 -1h-2.5h-2.5h-2.5h-2.5h-2.5h-2.5h-2.5h-1.5h-0.5h-1.5h-1.5q-19 2 -36 8t-33 18q-16 11 -24 28.5t-8 39.5v0.5v1.5v0l1 1v0.5v1.5v0.5v1.5v0l1 1v0.5v0.5q2 20 9.5 36t21.5 27q15 11 31 19.5t34 15.5q7 3 13.5 5t12.5 4
q3 1 6.5 2t6.5 2q10 2 18 4.5t15 5.5q3 1 5 2l4 2q2 0 4 1t3 2q4 2 5.5 4t2.5 5v5q0 5 -2.5 8.5t-7.5 6.5t-12.5 4.5t-17.5 1.5t-21.5 -1.5t-25.5 -4.5q-13 -3 -30 -8t-37 -12l6 83h4.5t4.5 1h2h2q2 1 4 1.5t4 0.5q8 2 16.5 3.5t17.5 2.5q5 1 10 1.5t10 0.5q5 1 10 1.5
t10 0.5h4.5t4.5 1h4.5h5.5h4.5t4.5 1h4.5h5.5q26 0 49 -4.5t43 -12.5q21 -9 31 -25.5t10 -40.5v-165q20 2 35 11.5t25 27.5t15.5 37.5t5.5 41.5q0 5 -0.5 10.5t-1.5 10.5t-1.5 10.5t-2.5 11.5q-7 29 -24 54.5t-44 48.5t-66 35t-90 12q-51 -1 -89.5 -18t-64.5 -52
q-26 -34 -40 -72t-16 -79v-2v-1v-2v-2v-2v-1v-2v-2v-1.5v-1.5v-1.5v-1.5q0 -44 13.5 -84.5t40.5 -76.5q26 -37 63.5 -55t86.5 -18h0.5h1.5h0.5t1.5 1h1.5h0.5h2h2h0.5t0.5 1h1v0q23 0 43 3t38 9t30 13.5t18 14.5v0v1h0.5h0.5v0.5v1.5l125 1q-15 -25 -32 -44.5t-36 -31.5
q-19 -13 -38 -22t-38 -14q-16 -4 -32 -5l-32 -2t-30.5 -1.5t-28.5 -0.5q-74 0 -130.5 24t-94.5 73q-38 50 -57.5 104t-19.5 113v0v1v0v0v0.5v1.5v3.5v2.5v3.5v2.5q2 57 22 109.5t58 100.5t95 72.5t133 25.5v1v0z" />
    <glyph glyph-name="A" unicode="A" horiz-adv-x="689" 
d="M245 619h198l216 -617h-173l-56 180h-191l-63 -180h-172l241 617v0v0zM276 307h122l-55 175l-67 -175v0v0z" />
    <glyph glyph-name="B" unicode="B" horiz-adv-x="508" 
d="M1 619h315q35 -1 61.5 -13t45.5 -36q18 -24 27 -50.5t10 -55.5v-1.5v-0.5v0v0v-1v0v-4v-4v-2v-2q-1 -1 -1 -2v-2q-1 -21 -8.5 -41t-18.5 -39q-12 -19 -28.5 -31.5t-37.5 -20.5q27 -5 48 -18.5t34 -35.5q14 -22 21.5 -45.5t8.5 -48.5v-1.5v-0.5v-1.5v-0.5v-1.5v-1.5v-1.5
v-1.5q-1 -29 -11 -55.5t-30 -50.5q-19 -24 -48 -36t-67 -12l-321 1v617v0v0zM248 117q17 0 29.5 4t21.5 13t14 19t6 20v0.5t1 1.5v0.5v1.5v2v2v0v1v0v0v0.5v1.5q-1 12 -5.5 23t-13.5 21t-20.5 15t-25.5 5l-99 1v-132h92v0v0zM230 504h-74v-132h80q14 -1 24.5 3.5t19.5 13.5
t14.5 19t6.5 21v1.5t1 1.5v0.5v1.5v1.5v1.5v0.5v1.5v0.5v1.5v1.5v1.5q-1 11 -6 21t-13 19q-9 9 -22.5 14t-30.5 5v1v0z" />
    <glyph glyph-name="C" unicode="C" horiz-adv-x="500" 
d="M455 612l19 -144q-10 2 -20.5 4.5t-23.5 4.5q-6 1 -12.5 2t-12.5 2t-12.5 1.5t-12.5 1.5h-4.5t-4.5 1h-4h-4h-4.5t-4.5 1h-4h-4h-1v0v0v0h-1v0q-34 -1 -65 -10t-59 -27t-42 -52t-14 -84q0 -51 11.5 -87.5t35.5 -59.5t54 -34.5t66 -11.5q13 0 27 1.5t29 4.5q8 2 15.5 3.5
t15.5 3.5q8 3 15.5 5t15.5 5l6 2l6 2q2 1 3.5 1.5t3.5 1.5q1 0 3 0.5t3 1.5l-19 -143q-20 -5 -39.5 -8t-37.5 -5q-19 -2 -36 -3t-32 -1q-73 0 -126 18t-88 55q-34 38 -55.5 79t-30.5 87q-2 9 -3.5 18t-1.5 18q-1 5 -1.5 9.5t-0.5 9.5v9v9v1v2v2.5v2.5v0v0v0v0v1.5t1 1.5v0.5
v1.5v1.5v1.5v9.5t1 8.5q0 5 0.5 10t1.5 10q8 50 30 96.5t60 89.5q38 42 93.5 63.5t129.5 21.5q15 0 31 -1.5t34 -3.5q17 -3 34.5 -6t35.5 -7v1v0z" />
    <glyph glyph-name="D" unicode="D" horiz-adv-x="557" 
d="M1 619h302q55 -1 96.5 -26t70.5 -72q28 -47 43 -98.5t16 -107.5v-1.5v-0.5v-1.5v-1.5v-2v-2q0 -58 -14.5 -110.5t-44.5 -99.5q-29 -48 -74 -71.5t-105 -23.5l-290 1v617v0v0zM242 482h-86v-350h80q30 -1 53.5 12.5t39.5 40.5q17 27 26.5 56.5t10.5 62.5v1.5v1.5v0.5v1.5
v3.5v2.5q0 31 -7.5 59.5t-23.5 54.5q-15 26 -37 39t-51 13l-5 1v0v0z" />
    <glyph glyph-name="E" unicode="E" horiz-adv-x="450" 
d="M3 619h420v-137h-259v-110h216v-130h-216v-110h259v-130h-420v617v0v0z" />
    <glyph glyph-name="F" unicode="F" horiz-adv-x="427" 
d="M5 619h397v-137h-235v-110h198v-130h-198v-240h-162v617v0v0z" />
    <glyph glyph-name="G" unicode="G" horiz-adv-x="566" 
d="M388 226h-70v131h223v-341q-31 -8 -60.5 -13t-55.5 -8q-28 -3 -52.5 -5t-47.5 -2q-78 0 -134 16t-90 50t-56 71.5t-32 78.5q-4 14 -6 27.5t-3 26.5q-1 14 -2 26.5t-1 24.5v2v2v1v2v4v4v1.5t1 1.5v1.5v1.5v4t1 4v3.5v3.5v3v3v3.5t1 3.5v3v3q7 61 33 108.5t71 81.5
t101.5 51t124.5 17q20 0 41.5 -1.5t43.5 -4.5q11 -1 22.5 -3.5t23.5 -4.5q11 -3 22.5 -6t22.5 -6l13 -145q-23 8 -45.5 14t-42.5 10t-39 6t-36 2q-49 0 -86.5 -14t-60.5 -42q-24 -28 -36.5 -58t-14.5 -63v-2.5v-3.5v-1.5v-0.5v-1.5v-1.5q0 -34 10 -65t32 -59
q21 -28 50 -41.5t66 -13.5h1.5h1.5h0.5h1.5q6 0 12.5 1t13.5 2q6 2 13 4t15 5v0v0v0h1v0.5v0.5h2h2t2 0.5t2 1.5v95v0v0z" />
    <glyph glyph-name="H" unicode="H" horiz-adv-x="565" 
d="M7 619h162v-240h210v240h159v-617h-159v247h-210v-247h-162v617v0v0z" />
    <glyph glyph-name="I" unicode="I" horiz-adv-x="195" 
d="M5 619h162v-617h-162v617v0v0z" />
    <glyph glyph-name="J" unicode="J" horiz-adv-x="402" 
d="M208 619h167v-458q0 -40 -13 -71t-39 -53t-63.5 -32.5t-84.5 -10.5q-17 0 -35.5 1.5t-38.5 3.5q-20 1 -40.5 5.5t-42.5 10.5l-13 153q11 -6 21.5 -11t20.5 -9q5 -2 10.5 -3.5t10.5 -3.5q15 -5 28.5 -7.5t25.5 -2.5q19 0 34.5 6t27.5 19q11 12 17.5 31.5t6.5 46.5v385v0v0
z" />
    <glyph glyph-name="K" unicode="K" horiz-adv-x="582" 
d="M7 619h168v-617h-168v617v0v0zM532 619l-178 -298l204 -319h-198l-179 319l167 298h184v0v0z" />
    <glyph glyph-name="L" unicode="L" horiz-adv-x="435" 
d="M1 619h168v-494h234v-123h-402v617v0v0z" />
    <glyph glyph-name="M" unicode="M" horiz-adv-x="647" 
d="M377 2h-137l-105 420v-420h-130v617h217l92 -384l94 384h216v-617h-137v420l-110 -420v0v0z" />
    <glyph glyph-name="N" unicode="N" horiz-adv-x="565" 
d="M397 211v408h142v-617h-191l-204 384v-384h-143v617h191l205 -408v0v0z" />
    <glyph glyph-name="O" unicode="O" horiz-adv-x="666" 
d="M323 626q79 -1 138 -25t99 -71q39 -48 59.5 -100.5t20.5 -111.5v-11q0 -61 -21 -116t-63 -105q-42 -49 -103 -73.5t-142 -24.5q-73 0 -130 24.5t-96 73.5q-40 50 -60 105t-22 115v2v2v1.5v1.5v0.5v1.5q0 58 19 111t57 102q38 48 97.5 72.5t139.5 24.5l7 1v0v0zM317 489
q-37 -1 -64 -15.5t-46 -43.5t-28.5 -61t-9.5 -67v-1.5v-0.5v0v0v-1v0v-2v-1v-2v-2v-2v-1v-2v-2q2 -31 12 -60.5t28 -55.5q19 -27 46 -40t62 -13q38 0 67 14.5t47 42.5q19 29 28.5 61t9.5 66v0.5v1.5v2v2q-1 34 -11 65.5t-29 59.5q-19 29 -45.5 43t-61.5 14l-5 1v0v0z" />
    <glyph glyph-name="P" unicode="P" horiz-adv-x="476" 
d="M1 619h290q39 -1 68.5 -15.5t49.5 -43.5q20 -28 30 -59.5t10 -66.5v-4v-4v-2v-2q-1 -1 -1 -2v-2q-2 -34 -15 -66t-36 -61q-22 -28 -55 -42.5t-76 -14.5q-6 0 -12.5 0.5t-13.5 1.5t-14 2.5t-15 2.5l-36 124q5 -2 11 -3.5t12 -3.5q2 -1 4.5 -1.5t5.5 -0.5h4.5h4.5
q17 0 29.5 4.5t21.5 13.5q8 9 13.5 19.5t6.5 21.5v2v2v2v2v2v2v2v2q-1 11 -5 20.5t-10 18.5t-13.5 13.5t-17.5 4.5l-80 1v-487h-161v617v0v0z" />
    <glyph glyph-name="Q" unicode="Q" horiz-adv-x="689" 
d="M566 139l99 22l-18 -130q-10 -1 -19.5 -2.5t-18.5 -3.5q-9 -1 -18 -2.5t-18 -3.5q-3 -1 -6 -1.5t-6 -0.5q-4 -1 -7 -1.5t-6 -0.5q-4 0 -8 -0.5t-8 -1.5q-2 0 -4 -0.5t-4 -0.5q-24 -4 -49 -7t-51 -5q-25 -1 -54.5 -2.5t-63.5 -1.5q-75 0 -131 23.5t-93 71.5t-56 102
t-19 113v2v2v1v2v2v2v1v2q3 59 23.5 112.5t59.5 102.5q38 49 95 73.5t132 24.5l8 1q71 -1 126.5 -23.5t97.5 -66.5q41 -45 64 -94t28 -102v-6v-6v-2.5t1 -3.5v-2.5v-3.5q0 -26 -5 -51.5t-14 -49.5t-23.5 -45.5t-33.5 -39.5v1v0zM325 496q-35 -1 -62.5 -15t-47.5 -42
q-19 -28 -29 -59.5t-10 -66.5v-0.5v-0.5q-1 -1 -1 -1.5v-0.5v-1.5v-0.5v-1.5v-1.5v0v0v0v0v-2.5v-2.5v-2v-1q0 -34 9.5 -63t29.5 -54q19 -25 48 -37t69 -12q36 0 63.5 14t45.5 42q18 29 27 59.5t9 64.5v0.5v1.5v2v2q-1 33 -11 63.5t-29 58.5t-45.5 42t-61.5 14l-4 1v0v0z
" />
    <glyph glyph-name="R" unicode="R" horiz-adv-x="508" 
d="M7 619h296q44 -1 77.5 -15.5t54.5 -41.5q20 -27 30.5 -56t10.5 -61v-4v-4v-2v-1v-2v-2q-2 -26 -10.5 -50.5t-23.5 -47.5q-16 -23 -36 -38.5t-46 -23.5l110 -268h-173l-110 334q1 -1 2.5 -1.5t2.5 -0.5h2.5h2.5v0h1v0v0h0.5h1.5q1 -1 2 -1h2h1h2q26 0 45.5 5t32.5 15
q14 11 21.5 22t10.5 24v1.5v1.5v0.5v1.5v1.5v1.5v0.5v1.5q0 14 -5.5 26t-16.5 23q-10 11 -25 17t-34 6l-74 1v-480h-155v617v0v0z" />
    <glyph glyph-name="S" unicode="S" horiz-adv-x="410" 
d="M365 468q-18 5 -34 9.5t-30 7.5q-13 3 -25.5 5t-22.5 2q-17 0 -30 -3.5t-22 -11.5q-9 -7 -13 -15.5t-4 -18.5q0 -6 1.5 -12.5t4.5 -13.5q2 -4 4 -7.5t4 -6.5q2 -4 5 -7.5t6 -7.5q5 -6 11.5 -12t13.5 -12q5 -4 11 -8.5t13 -8.5q2 -1 4 -2.5t4 -2.5q20 -12 37.5 -28
t30.5 -36q14 -20 24 -41t16 -42q1 -7 2.5 -13.5t2.5 -12.5v-6t1 -6v-6v-6q0 -31 -12.5 -58t-36.5 -50t-64 -34t-96 -11q-16 0 -33 1t-35 3t-37.5 5t-39.5 7l-19 153q8 -4 15.5 -8t15.5 -7q8 -4 16 -7t17 -5q3 -1 6.5 -2t6.5 -2q6 -2 12.5 -3.5t13.5 -2.5q10 -2 19 -3t18 -1
q14 0 27 3t23 10q10 6 15 16.5t5 24.5q0 5 -1.5 10.5t-3.5 9.5q-2 5 -5.5 10t-8.5 10q-3 4 -7 8l-8 8q-4 3 -9 7l-10 8q-10 8 -20 16.5t-21 18.5q-7 6 -14.5 12t-14.5 13t-13.5 14.5t-12.5 15.5q-7 10 -14 21t-13 23q-5 12 -9.5 24t-7.5 24q-1 5 -2 10.5t-2 10.5t-1 10v10
q0 31 11.5 58t35.5 51q23 24 61.5 36t91.5 12q14 0 28.5 -0.5t30.5 -2.5q17 -1 34 -4t34 -7l19 -143v0v0z" />
    <glyph glyph-name="T" unicode="T" horiz-adv-x="515" 
d="M161 482h-160v137h488v-137h-161v-480h-167v480v0v0z" />
    <glyph glyph-name="U" unicode="U" horiz-adv-x="549" 
d="M358 619h160v-429q0 -49 -20 -87t-60 -64t-83.5 -38.5t-91.5 -12.5h-2h-2h-2h-2h-2h-1h-2h-2q-44 2 -84.5 15.5t-78.5 39.5q-37 26 -57 64t-23 89v423h162v-363q0 -31 7 -54.5t21 -40.5q14 -16 30 -25t33 -11h1.5h1.5h2h2v0h1v0v0h2h2q17 1 31.5 9t28.5 23t21 36t7 48
v378v0v0z" />
    <glyph glyph-name="V" unicode="V" horiz-adv-x="666" 
d="M311 168l155 451h174l-237 -617h-192l-208 617h172l136 -451v0v0z" />
    <glyph glyph-name="W" unicode="W" horiz-adv-x="844" 
d="M253 182l67 437h179l74 -437l94 437h149l-143 -617h-197l-70 363l-67 -363h-198l-136 617h160l88 -437v0v0z" />
    <glyph glyph-name="X" unicode="X" horiz-adv-x="599" 
d="M308 458l80 161h173l-167 -290l173 -327h-186l-86 195l-111 -195h-179l191 327l-160 290h186l86 -161v0v0z" />
    <glyph glyph-name="Y" unicode="Y" horiz-adv-x="583" 
d="M282 401l98 218h174l-198 -370v-247h-168v247l-184 370h178l100 -218v0v0z" />
    <glyph glyph-name="Z" unicode="Z" horiz-adv-x="493" 
d="M251 489h-234v130h444v-137l-253 -343h253v-137h-457v144l247 343v0v0z" />
    <glyph glyph-name="bracketleft" unicode="[" horiz-adv-x="238" 
d="M9 619h204v-50h-82v-690h82v-50h-204v790v0v0z" />
    <glyph glyph-name="backslash" unicode="\" horiz-adv-x="433" 
d="M4 612h148l253 -610h-150l-251 610v0v0z" />
    <glyph glyph-name="bracketright" unicode="]" horiz-adv-x="237" 
d="M82 561h-73v58h204v-790h-204v57h73v675v0v0z" />
    <glyph glyph-name="asciicircum" unicode="^" horiz-adv-x="459" 
d="M130 612h186l118 -348h-155l-55 211l-62 -211h-155l123 348v0v0z" />
    <glyph glyph-name="underscore" unicode="_" horiz-adv-x="418" 
d="M1 -63h388v-51h-388v51v0v0z" />
    <glyph glyph-name="grave" unicode="`" horiz-adv-x="187" 
d="M84 612h74l-37 -175h-117l80 175v0v0z" />
    <glyph glyph-name="a" unicode="a" horiz-adv-x="451" 
d="M61 437q28 8 54 13.5t49 9.5t43.5 6t39.5 2q44 0 77 -9t53 -27t31 -39t12 -44v-347h-149v202q-5 -4 -10.5 -7.5t-10.5 -6.5t-11 -5l-12 -4q-1 0 -2 -0.5l-1 -0.5q-1 -1 -2 -1.5t-2 -0.5q-2 -1 -3.5 -1.5t-3.5 -0.5q-10 -4 -18 -7.5t-16 -7.5q-7 -4 -12 -9.5t-8 -13.5
q-1 -1 -1 -1.5v-1.5v-1.5v-0.5q-1 -1 -1 -1.5v-1.5v-1.5v-0.5q-1 -1 -1 -1.5v-1.5v-2v-1q0 -7 2.5 -13t9.5 -12q5 -6 13.5 -8.5t18.5 -2.5h6t7 1t7.5 2t7.5 2v0l1 1h0.5h0.5h0.5t1.5 1h0.5h0.5h2t2 1h0.5h0.5v0v1h0.5h1.5l-18 -100q-2 1 -4 1h-4t-3.5 -0.5t-2.5 -0.5
t-1.5 -0.5t-1.5 -0.5h-5.5t-4.5 -1h-4.5h-5.5h-5t-5 -1h-4h-4q-42 0 -72.5 8.5t-49.5 26.5q-18 18 -28.5 38t-12.5 42q0 1 -0.5 2t-0.5 2v1v2v4v4v0.5v1.5v0.5v1.5q0 17 4.5 33.5t11.5 31.5q8 15 17 26t19 17q3 2 6 3.5t6 3.5q1 0 2 0.5t2 1.5l4 2l4 2q3 2 6.5 3t6.5 3
q3 1 6.5 2.5t6.5 2.5q6 2 12.5 4t12.5 4t12.5 4t12.5 4q12 3 23.5 6.5t21.5 7.5q13 4 24 8.5t19 8.5q9 5 13 11.5t4 14.5v0.5v1.5v1v2v0v1h-1v0v0.5v1.5v0v1v0v0v0.5v1.5q-1 1 -1.5 2t-2.5 2q0 1 -1.5 2t-2.5 2l-0.5 1t-1.5 1q-4 2 -8.5 4.5t-11.5 4.5q-6 2 -14 3t-17 1
q-13 0 -28 -2.5t-33 -7.5q-18 -4 -40 -13t-48 -22l12 117v0v0z" />
    <glyph glyph-name="b" unicode="b" horiz-adv-x="483" 
d="M152 458q8 2 15.5 4t14.5 4q4 1 8 1.5t8 1.5q3 1 7 1.5t8 1.5q5 1 10.5 1.5t10.5 1.5h5.5t5.5 1h4.5h5.5q37 0 70.5 -12.5t62.5 -37.5t45.5 -67.5t19.5 -103.5v-20q0 -61 -12.5 -105.5t-36.5 -73.5q-25 -28 -52.5 -44t-56.5 -20h-2.5t-3.5 -1h-2.5h-3.5h-2.5t-2.5 -1h-3
h-3q-20 0 -38.5 5t-36.5 12q-18 9 -31.5 22.5t-21.5 29.5v-57h-141v617h149v-161v0v0zM152 336v-118q0 -24 5.5 -42t17.5 -32q12 -13 25.5 -19.5t27.5 -6.5h2.5h1.5h1.5h1.5l0.5 0.5t1.5 0.5q13 2 24.5 10t21.5 22q11 14 16.5 34.5t5.5 48.5q0 5 -0.5 10t-1.5 11q0 2 -0.5 4
t-1.5 4q-1 4 -1.5 8t-2.5 8q-4 12 -11 24t-18 22q-10 11 -24.5 16.5t-32.5 5.5q-6 0 -13 -0.5t-15 -2.5q-7 -1 -15 -3.5t-16 -5.5v1v0z" />
    <glyph glyph-name="c" unicode="c" horiz-adv-x="376" 
d="M346 314q-15 7 -29 12t-27 8t-24.5 4.5t-22.5 1.5q-25 0 -43.5 -8t-30.5 -25q-13 -16 -19 -34t-6 -38v-1.5v-0.5v0v0v-1v0q0 -21 7.5 -40.5t21.5 -36.5q14 -18 34 -26.5t45 -8.5h0.5h1.5h0.5h0.5h0.5h0.5h0.5h1.5h1.5h0.5q9 1 19.5 3.5t21.5 6.5t22.5 9.5t22.5 12.5
l-18 -143q-8 -4 -16.5 -6.5t-16.5 -3.5q-9 -2 -17.5 -4t-16.5 -3q-5 -1 -11 -1.5t-12 -1.5h-5.5t-5.5 -1h-5.5h-5.5q-41 0 -78 14t-70 43q-34 29 -50.5 78t-16.5 118q0 48 12 89.5t34 75.5q23 35 63 52.5t98 17.5q14 0 28 -1.5t30 -3.5q17 -2 34 -5.5t34 -8.5l12 -143v0v0z
" />
    <glyph glyph-name="d" unicode="d" horiz-adv-x="483" 
d="M310 468v151h149v-617h-143v50q-7 -13 -20 -24t-30 -19q-17 -7 -35 -10.5t-37 -4.5h-1.5h-0.5h-1.5h-0.5h-4h-3q-2 1 -4 1h-4q-4 0 -7.5 0.5t-7.5 1.5q-29 4 -55.5 19.5t-50.5 43.5q-24 27 -36.5 69.5t-12.5 100.5v0.5v1.5v0.5t1 1.5v0.5v1.5v0.5v1.5v0.5t1 1.5v0.5v0.5
q2 51 14 89t36 63q25 25 51 41.5t55 25.5q11 3 22.5 5.5t23.5 3.5q11 2 21.5 2.5t20.5 0.5h5.5h5.5q2 -1 4.5 -1h5.5q5 -1 9.5 -1.5t8.5 -0.5h3h3q1 -1 2.5 -1h2.5q2 0 3.5 -0.5t2.5 -0.5h1.5h1.5v1v0zM310 350q-1 -1 -2.5 -1h-2.5h-1.5t-1.5 1h-1.5h-0.5h-4t-3 1h-4h-4h-7
h-6q-29 0 -51 -8t-37 -24t-22.5 -39.5t-7.5 -54.5q0 -24 6 -43.5t18 -34.5q12 -16 25.5 -24t27.5 -10h0.5h0.5h0.5h0.5h1.5h1.5h0.5h1.5v0v0q13 0 25 7.5t22 20.5q11 14 17 35t8 49v125v0v0z" />
    <glyph glyph-name="e" unicode="e" horiz-adv-x="459" 
d="M228 475q52 -1 90 -18t63 -50q24 -33 36.5 -70.5t12.5 -79.5v-13.5t-1 -13.5t-1.5 -13.5t-1.5 -13.5l-279 1q5 -24 16 -42.5t26 -31.5t34.5 -19t42.5 -6q14 0 29 2.5t31 6.5q17 5 34 11t36 13l-13 -129q-19 -6 -38 -10t-37 -7t-34.5 -5t-31.5 -2q-61 0 -106 18.5
t-75 56.5q-31 38 -46 79.5t-15 87.5v0v1v0v0v0.5v1.5v0.5v1.5v2v2q0 44 14.5 85t42.5 78q29 38 70 56.5t95 18.5l6 1v0v0zM283 292q0 21 -4.5 36.5t-15.5 24.5q-10 9 -21.5 13.5t-25.5 4.5q-12 0 -22.5 -5t-20.5 -16q-10 -10 -15 -25t-5 -34l130 1v0v0z" />
    <glyph glyph-name="f" unicode="f" horiz-adv-x="328" 
d="M51 468q0 47 5.5 81t17.5 53q12 20 38.5 30t68.5 10q11 0 24 -0.5t28 -2.5q15 -1 31 -2.5t33 -3.5l6 -122h-3h-3q-2 0 -3.5 0.5t-3.5 1.5l-6 2t-7 2h-1.5h-2.5q-1 0 -1.5 0.5l-1.5 1.5q-3 1 -5.5 1.5t-4.5 1.5q-3 0 -5.5 0.5t-5.5 1.5q-4 1 -8.5 1.5t-8.5 0.5
q-8 0 -15.5 -3t-12.5 -9q-7 -6 -9.5 -15t-2.5 -23v-1.5v-0.5v-1.5v-0.5v0v0v-1v0v0v0v-1.5v-1.5v-1v0l87 1v-118h-80v-348h-148v348h-44v118h44v0v0z" />
    <glyph glyph-name="g" unicode="g" horiz-adv-x="491" 
d="M316 60q-3 -3 -6.5 -6t-6.5 -6t-6.5 -5.5t-6.5 -4.5t-6 -4.5t-6 -4.5l-7 -3.5t-6 -3.5q-7 -4 -14 -7.5t-14 -5.5q-4 -1 -7 -2t-7 -2q-10 -3 -20 -4t-19 -1q-34 0 -64 14.5t-56 44.5q-25 30 -39.5 69.5t-17.5 88.5v1.5v1.5v0.5v1.5q-1 0 -1 0.5v0.5v0.5v1.5v0v1v0v0v1.5
v1.5q-1 0 -1 0.5v1.5v2v2q0 60 19.5 105.5t59.5 75.5q39 30 88.5 45t110.5 15q21 0 43 -2t45 -5t46.5 -8t46.5 -11v-513q0 -41 -15.5 -70.5t-46.5 -45.5q-30 -17 -65 -25t-74 -8h-7.5h-7.5q-4 1 -7.5 1h-6.5q-4 0 -7.5 0.5t-6.5 0.5q-4 1 -7.5 1h-7.5q-18 2 -35 5t-34 7
q-16 4 -32 9t-30 10l-12 129q26 -9 49.5 -16.5t42.5 -11.5q20 -5 37 -7t30 -2q26 0 44 6.5t27 20.5q9 13 14.5 28t6.5 31v4t1 4v4v4v4v5q0 2 0.5 4t0.5 4v3.5v3.5v3v3v3.5v3.5q0 1 0.5 3t0.5 3v1v0zM316 343h-2h-2h-2h-2h-2t-2 1h-2h-2h-4t-4 1h-2.5h-2.5h-2.5t-3.5 1h-2.5
h-2.5q-29 0 -52 -9.5t-38 -28.5q-16 -19 -24 -42t-8 -49q0 -19 6 -34.5t19 -29.5q13 -13 26.5 -19.5t28.5 -6.5h2.5h1.5h3t2 1q13 2 25.5 10t23.5 23t17 38.5t7 55.5v88v0v0z" />
    <glyph glyph-name="h" unicode="h" horiz-adv-x="483" 
d="M459 336v-334h-149v247q-1 17 -6.5 30.5t-16.5 24.5t-22.5 16.5t-24.5 5.5h-1.5h-1.5q-1 -1 -1.5 -1h-1.5h-1.5h-0.5h-1.5h-1.5q-13 -3 -25 -13.5t-23 -28.5q-12 -18 -17.5 -45.5t-7.5 -63.5v-172h-149v617h149v-218q12 16 26.5 28.5t30.5 21.5t32.5 15t33.5 9h3.5t3.5 1
h3h4h3.5t2.5 1h3.5h3.5q29 0 55.5 -9.5t50.5 -27.5q23 -19 35 -45t12 -60v1v0z" />
    <glyph glyph-name="i" unicode="i" horiz-adv-x="180" 
d="M3 458h149v-456h-149v456v0v0zM3 626h149v-101h-149v101v0v0z" />
    <glyph glyph-name="j" unicode="j" horiz-adv-x="319" 
d="M142 -5v463h149v-528q0 -40 -13.5 -67.5t-39.5 -40.5q-27 -14 -57.5 -20.5t-64.5 -6.5h-4h-4h-4h-4h-4h-4q-2 1 -4 1h-4q-8 0 -16.5 0.5t-16.5 1.5t-16 1.5t-16 1.5l-12 129q3 1 6.5 0.5t7.5 -1.5t8 -1.5t8 -1.5h1.5t1.5 -1h2h2t3 -0.5t4 -1.5q3 0 6 -0.5t7 -1.5h3.5
t3.5 -1h3h4q11 0 21.5 3.5t20.5 11.5q10 7 15.5 22.5t6.5 38.5v-1v0zM142 626h149v-101h-149v101v0v0z" />
    <glyph glyph-name="k" unicode="k" horiz-adv-x="483" 
d="M1 619h149v-617h-149v617v0v0zM428 458l-118 -202l142 -254h-167l-129 254l110 202h162v0v0z" />
    <glyph glyph-name="l" unicode="l" horiz-adv-x="180" 
d="M3 619h149v-617h-149v617v0v0z" />
    <glyph glyph-name="m" unicode="m" horiz-adv-x="666" 
d="M144 408q10 15 23.5 26.5t30.5 20.5q17 8 34 12.5t36 4.5h1.5h1.5h0.5h0.5q1 -1 2.5 -1h2.5h4.5h5.5q14 -2 28 -7t27 -13q14 -7 24.5 -18.5t19.5 -25.5q9 13 20 23.5t24 18.5t26.5 13.5t27.5 8.5q4 0 7.5 0.5t7.5 1.5h4t4 1h4h4q24 0 45.5 -7.5t40.5 -21.5
q20 -14 29.5 -34.5t9.5 -46.5v-362h-143v258q0 18 -3 32t-10 23q-6 9 -12.5 14t-13.5 6h-1.5h-0.5v0v0h-1v0h-1.5h-0.5q-1 -1 -1.5 -1h-1.5h-1.5h-0.5q-1 -1 -1.5 -1h-0.5q-9 -3 -17 -10.5t-16 -19.5t-11.5 -27.5t-3.5 -34.5v-239h-149v269q0 15 -3.5 26.5t-9.5 18.5
q-7 8 -14 11.5t-15 3.5h-1.5h-0.5q-1 -1 -1.5 -1h-1.5h-2.5h-1.5q-9 -3 -17.5 -10t-16.5 -18q-7 -11 -10.5 -26t-3.5 -35v-239h-141v456h135v-50v0v0z" />
    <glyph glyph-name="n" unicode="n" horiz-adv-x="483" 
d="M142 394q8 15 22.5 28.5t33.5 24.5q20 11 41 18.5t43 11.5h4t4 1h3h4h4t4 1h3h4q26 0 50 -8t46 -24q21 -16 32 -42t12 -63v-340h-149v240q0 21 -5 37t-15 28q-9 11 -19.5 17t-21.5 7h-1.5h-0.5v0v0h-1v0h-2h-1q-1 -1 -2 -1h-2h-1.5h-1.5q-1 -1 -1.5 -1h-1.5
q-13 -3 -24.5 -12t-21.5 -24q-11 -15 -16.5 -35.5t-7.5 -47.5v-208h-149v456h135v-64v0v0z" />
    <glyph glyph-name="o" unicode="o" horiz-adv-x="500" 
d="M240 475q58 -3 101.5 -23.5t71.5 -58.5q28 -37 42 -79t14 -89q0 -43 -15 -83t-44 -76t-71.5 -53t-98.5 -17q-57 0 -101 18t-74 55t-45 77.5t-15 85.5v4v4v4t1 5q3 41 19 79.5t45 73.5t72 53t98 19v1v0zM240 343q-23 -1 -41 -10.5t-29 -27.5q-12 -18 -17.5 -38t-5.5 -42
v-5.5v-4.5v-5.5t1 -4.5q3 -16 9.5 -30t16.5 -27t24 -19.5t32 -6.5h0.5h1.5v0l1 1h0.5h1.5h1.5h1.5v0l1 1h0.5h0.5q20 0 35 8.5t25 25.5t15 35.5t5 38.5v1.5v1.5v0.5v1.5v3.5v2.5q-1 18 -6.5 34.5t-15.5 32.5q-10 15 -24 23t-34 9v1v0z" />
    <glyph glyph-name="p" unicode="p" horiz-adv-x="483" 
d="M7 444q31 7 59.5 12t55.5 9q26 3 49 5t44 2q61 0 103.5 -12.5t66.5 -38.5q25 -25 40.5 -53.5t22.5 -58.5q1 -4 2 -8.5t2 -8.5q1 -5 1.5 -9t0.5 -9q1 -4 1.5 -8.5t1.5 -8.5q0 -4 0.5 -8t1.5 -8v-23v-8.5t-1 -8.5q0 -5 -0.5 -9t-1.5 -9q0 -3 -0.5 -6t-1.5 -6
q-1 -5 -1.5 -10.5t-2.5 -11.5q-7 -31 -20.5 -58.5t-33.5 -52.5q-19 -25 -45 -36.5t-58 -11.5q-15 0 -31 3.5t-33 7.5q-18 6 -36.5 17t-38.5 26v-252h-147v652v0v0zM154 336v-118q0 -22 6 -40t17 -32q11 -13 24 -20.5t26 -9.5h1.5h1.5h1.5h0.5v0h1v0v0h0.5h1.5q14 0 27 8
t24 23t17.5 38.5t6.5 55.5v2v2v2v2q-1 18 -8 34t-19 31q-11 15 -29 22.5t-41 7.5q-7 0 -13.5 -0.5t-13.5 -2.5q-4 -1 -8 -1.5t-8 -1.5t-8 -1.5t-8 -1.5v1v0z" />
    <glyph glyph-name="q" unicode="q" horiz-adv-x="483" 
d="M310 -200v260q-10 -13 -20 -23t-21 -18q-11 -7 -22.5 -12.5t-22.5 -7.5q-5 -1 -9.5 -1.5t-9.5 -1.5t-9.5 -1.5t-8.5 -0.5h-1.5h-0.5v0v0h-1v0q-34 1 -64.5 16.5t-58.5 47.5t-42 73.5t-14 91.5v0.5v1.5v0.5t1 1.5v0.5v1.5v0.5v1.5v0.5t1 1.5v0.5v0.5q2 66 21.5 111.5
t57.5 70.5t80.5 39t88.5 18h8.5h9.5h5.5t4.5 1h4.5h5.5q21 0 41.5 -1.5t40.5 -3.5t37.5 -4.5t33.5 -5.5h1h2v-1h1h1h1h1h2q1 -1 2 -1h2v-657h-149v0v0zM310 343q-1 -1 -2.5 -1h-2.5h-1.5t-1.5 1h-1.5h-0.5h-4t-3 1h-4h-4h-7h-6q-23 0 -42.5 -6.5t-36.5 -20.5
q-16 -13 -24 -36.5t-8 -55.5v-0.5v-0.5l-1 -1v0v-1.5v-0.5v0v0v-1v0v0v0v-0.5v-0.5q-1 -1 -1 -1.5v-0.5v-1v0q0 -24 5.5 -42.5t16.5 -30.5q11 -13 23.5 -19t25.5 -6h1.5h0.5h0.5h1.5h2.5t1.5 1q14 2 26 10t24 23q11 14 16.5 34.5t5.5 45.5v111v0v0z" />
    <glyph glyph-name="r" unicode="r" horiz-adv-x="311" 
d="M144 408q2 2 4.5 5t4.5 6q2 2 3 3.5t3 3.5q1 1 2.5 3t2.5 4q8 8 17.5 15t19.5 14q11 7 23.5 10.5t26.5 3.5h1.5h1.5q1 -1 1.5 -1h0.5h3.5h2.5h0.5h1.5h0.5h1.5q1 -1 2 -1h2h1.5h0.5h0.5h1.5l13 -145q-2 0 -3.5 -0.5t-2.5 -0.5h-1.5h-1.5h-2t-2 1h-2h-2h-4t-4 1h-4h-4h-4
t-3 1h-3.5h-3.5q-27 0 -45 -8t-27 -25q-9 -16 -13.5 -38t-4.5 -50v-208h-147v456h141v-50v0v0z" />
    <glyph glyph-name="s" unicode="s" horiz-adv-x="353" 
d="M328 336q-16 3 -29.5 6t-25.5 5q-13 2 -23 3t-18 1q-12 0 -20.5 -2t-14.5 -5q-7 -4 -9.5 -8.5t-2.5 -9.5q0 -6 3.5 -13t10.5 -15q8 -8 18.5 -17t24.5 -18q13 -10 23.5 -20t19.5 -21t16 -22t12 -22q4 -7 7 -14.5t4 -15.5q2 -7 3 -14.5t1 -15.5q0 -25 -11.5 -47.5
t-33.5 -41.5t-53 -28t-71 -9q-14 0 -30 1.5t-33 4.5q-17 2 -34.5 6.5t-35.5 10.5l-19 131q22 -8 41 -14t34 -9q15 -4 27.5 -5.5t21.5 -1.5q8 0 15 1.5t11 4.5t6 6.5t2 7.5t-1.5 8.5t-5.5 10.5q-3 6 -7.5 12t-9.5 12l-8 8t-9 8q-4 4 -8.5 7.5t-9.5 7.5q-13 10 -24.5 22
t-20.5 27q-10 14 -16.5 29t-10.5 30q-1 2 -1.5 4.5t-1.5 5.5q-1 2 -1.5 4.5t-0.5 4.5t-0.5 4.5t-0.5 5.5v4.5v4.5q0 23 9 43.5t28 38.5q18 18 48 27t72 9q14 0 28.5 -1t30.5 -3q17 -1 35 -4.5t37 -8.5l12 -121v0v0z" />
    <glyph glyph-name="t" unicode="t" horiz-adv-x="336" 
d="M64 458v89l149 36v-125h86v-122h-86v-154q0 -19 2.5 -31.5t9.5 -18.5q5 -6 12.5 -9t15.5 -3h6.5t7.5 1q2 0 4 0.5t4 1.5q2 0 4 0.5t4 1.5v0h1v0v0v0l1 1v0v0h3.5t3.5 1q1 0 3 0.5t3 0.5q3 1 6 1.5t7 1.5l-18 -122q-5 -4 -11.5 -7t-14.5 -7l-6 -2l-6 -2q-13 -5 -26.5 -7
t-27.5 -3h-1.5h-0.5h-1.5h-1.5h-2h-2h-1.5h-1.5h-2.5h-3.5h-2h-2q-1 1 -2 1h-2q-21 2 -38.5 9t-34.5 18q-17 12 -26.5 31.5t-11.5 46.5v249h-61v122h61v0v0z" />
    <glyph glyph-name="u" unicode="u" horiz-adv-x="459" 
d="M285 458h149v-456h-143v58q-10 -16 -22.5 -28.5t-27.5 -21.5t-31 -14t-33 -7h-4.5h-4.5h-2.5t-2.5 -1h-0.5h-0.5h-1.5h-1.5h-1.5h-1.5h-1.5h-1.5q-25 1 -49 9.5t-46 25.5t-35 42.5t-16 58.5v334h147v-240q0 -22 4.5 -39.5t14.5 -29.5t20.5 -18t22.5 -6h2h2h0.5h0.5h0.5
h1.5q11 2 22 9t21 20q9 13 14 31t5 40v233v0v0z" />
    <glyph glyph-name="v" unicode="v" horiz-adv-x="500" 
d="M248 161l68 297h154l-148 -456h-161l-154 456h160l81 -297v0v0z" />
    <glyph glyph-name="w" unicode="w" horiz-adv-x="755" 
d="M232 175l67 283h148l68 -290l68 290h142l-142 -456h-147l-63 269l-74 -269h-137l-153 456h147l76 -283v0v0z" />
    <glyph glyph-name="x" unicode="x" horiz-adv-x="525" 
d="M253 329l61 129h167l-124 -216l136 -240h-179l-67 137l-70 -137h-172l142 233l-129 223h180l55 -129v0v0z" />
    <glyph glyph-name="y" unicode="y" horiz-adv-x="500" 
d="M242 139l80 319h148l-179 -557q-8 -28 -21.5 -48t-31.5 -33q-19 -13 -38.5 -21t-40.5 -11h-4.5t-4.5 -1h-4h-4h-4.5t-4.5 -1h-4h-4q-13 0 -26 1.5t-26 3.5t-23 4.5t-18 5.5l-19 129q5 -2 10.5 -4.5t12.5 -4.5t13.5 -4t13.5 -3h5.5h4.5h3t3 -1h2.5h2.5h2h2h1.5h0.5h0.5
h1.5q14 1 27 6t24 13t17.5 20t6.5 29v2.5v2.5q-1 2 -1 3v3q-1 3 -1.5 5.5t-0.5 4.5v0.5v1.5q-1 0 -1 0.5v0.5v1v2q-1 0 -1.5 1t-0.5 2v2v2l-154 443h154l81 -319v0v0z" />
    <glyph glyph-name="z" unicode="z" horiz-adv-x="376" 
d="M181 343h-168v125h333v-147l-165 -196h171v-123h-345v137l174 204v0v0z" />
    <glyph glyph-name="braceleft" unicode="{" horiz-adv-x="294" 
d="M66 343v197q0 15 3 28.5t10 25.5q6 12 19.5 18t34.5 6l124 1v-65q-11 -1 -21 -3t-18 -5q-8 -4 -12 -16.5t-4 -34.5v-181q0 -14 -3.5 -27.5t-10.5 -25.5t-18 -21t-25 -15q12 -6 22.5 -14t18.5 -19t12 -24.5t4 -29.5v-180q0 -18 3.5 -29t10.5 -14q8 -3 19.5 -4.5t27.5 -1.5
v-73h-142q-16 4 -27 10t-17 16t-8.5 27.5t-2.5 41.5v172q0 15 -3.5 27t-11.5 21t-19.5 14.5t-27.5 8.5v97q14 -1 25 4t20 15q8 10 12.5 23t4.5 29v1v0z" />
    <glyph glyph-name="bar" unicode="|" horiz-adv-x="172" 
d="M9 612h136v-610h-136v610v0v0z" />
    <glyph glyph-name="braceright" unicode="}" horiz-adv-x="285" 
d="M59 504q0 10 -3.5 17.5t-10.5 13.5q-7 5 -17 8t-24 3v66h135q19 -1 31 -7t17 -18q4 -12 6.5 -25.5t2.5 -30.5v-195q0 -12 2.5 -22t9.5 -19q6 -9 18 -13.5t31 -4.5v-102q-2 -1 -5 -1.5t-6 -0.5h-3.5h-3.5q-2 -1 -3.5 -1h-3.5q-6 -1 -11.5 -4t-10.5 -8q-4 -4 -7 -11t-3 -16
v-1.5v-0.5v-0.5t1 -0.5v-1v0v0v0v-1v0v0v0v-1.5v-1.5v-0.5t1 -0.5v0v0v-216q0 -23 -5.5 -39.5t-16.5 -23.5q-12 -8 -26.5 -11.5t-32.5 -3.5l-110 -1v65h13q11 1 18 4.5t10 11.5q3 7 5 17.5t2 24.5v187v1.5t1 1.5v1.5v1.5q0 2 0.5 3.5t1.5 2.5v2v2v1v2q0 2 0.5 3.5t1.5 2.5
q2 6 5.5 12t9.5 13q5 7 16 16t26 20q-19 6 -31 14.5t-18 19.5q-7 11 -10 24.5t-3 29.5v191v0v0z" />
    <glyph glyph-name="asciitilde" unicode="~" horiz-adv-x="466" 
d="M366 350l74 -153q-9 -19 -20 -34.5t-22 -26.5q-12 -10 -24 -17.5t-25 -10.5q-2 -1 -3.5 -1.5t-3.5 -0.5q-2 -1 -3.5 -1h-3.5q-4 -1 -7 -1h-6h-3.5h-2.5h-1.5h-1.5h-2t-1 1h-2h-2q-10 2 -20.5 5.5t-19.5 9.5q-10 5 -19 11.5t-17 13.5q-13 11 -24 19.5t-22 13.5
q-10 5 -18.5 8t-15.5 3q-9 0 -16.5 -3.5t-14.5 -11.5q-7 -7 -13 -17t-12 -22q-1 -1 -2 -3t-2 -3q-1 -2 -1.5 -3.5t-1.5 -3.5q-1 -1 -1.5 -3t-1.5 -3q-1 -2 -1.5 -3.5t-1.5 -3.5l-74 155l6 8l6 8q2 3 4 5.5t4 5.5q1 1 2 2.5t2 2.5q12 14 24 23.5t24 15.5q11 5 22.5 8t22.5 3
q10 0 19.5 -2t18.5 -5q9 -4 17 -7.5t15 -7.5q2 -1 4 -2.5t4 -2.5q2 -2 4 -3l4 -2q4 -3 7.5 -4.5t6.5 -3.5l1.5 -1.5t1.5 -0.5q0 -1 0.5 -1.5t1.5 -0.5q2 -1 3.5 -2t2.5 -2q2 -1 3.5 -2.5t2.5 -3.5q2 -1 3.5 -2t3.5 -2q5 -4 11 -8.5t13 -7.5q6 -3 12 -4.5t11 -1.5h3.5t3.5 1
q2 0 3.5 0.5t3.5 1.5q4 2 7.5 4t7.5 5l3.5 3.5l3.5 3.5q4 4 7.5 8.5t6.5 10.5q5 9 10.5 20.5t10.5 24.5v1v0z" />
    <glyph glyph-name="exclamdown" unicode="&#xa1;" horiz-adv-x="180" 
d="M3 242h149v-385h-149v385v0v0zM3 458h149v-144h-149v144v0v0z" />
    <glyph glyph-name="cent" unicode="&#xa2;" horiz-adv-x="384" 
d="M158 496v116h116v-116q9 -1 18 -2.5t16 -3.5q8 -2 15 -4.5t14 -4.5l19 -138q-13 6 -26 10.5t-26 7.5t-24 4.5t-20 1.5q-24 0 -42 -8t-31 -24q-12 -16 -17.5 -33t-5.5 -36v-1.5v-1.5v-1.5v-1.5q0 -20 8 -38.5t21 -35.5q14 -17 34 -25.5t46 -8.5h0.5h1.5h1.5h0.5h0.5h1.5
h1.5h1.5q6 0 13.5 1t16.5 4q8 2 17 5.5t18 7.5q1 0 2 0.5t2 1.5q1 0 2.5 0.5t2.5 1.5l-13 -136l-2 -2l-1 -1h-1.5h-1.5q-2 -1 -4 -1.5t-4 -1.5q-4 -1 -7.5 -2.5t-8.5 -2.5q-3 -1 -6.5 -1.5t-6.5 -1.5q-3 0 -6.5 -0.5t-6.5 -0.5q-2 -1 -3.5 -1h-3.5h-2.5h-3.5v-78h-116v87
q-37 4 -65 22t-48 51q-19 33 -29 69t-11 75v0.5v1.5v2v2v6v6v3.5t1 3.5v3v3q3 37 14.5 71.5t30.5 65.5q19 32 46 52t61 27v1v0z" />
    <glyph glyph-name="sterling" unicode="&#xa3;" horiz-adv-x="466" 
d="M51 365q-6 14 -10.5 27t-7.5 26q-4 12 -5 24t-1 23q0 39 16 67.5t47 46.5q32 17 67.5 27t73.5 11h2.5t2.5 1h3.5h2.5h5h6h5h6h4h4h2h2q6 -1 12.5 -1.5t13.5 -0.5q7 -1 13.5 -1.5t12.5 -1.5q13 -1 24.5 -3.5t21.5 -5.5l12 -153q-16 9 -32 16t-31 11q-16 4 -29 6t-24 2
q-18 0 -32.5 -5t-24.5 -15t-15.5 -22t-5.5 -26q0 -4 0.5 -8t1.5 -9q2 -4 3.5 -8.5t2.5 -9.5q0 -3 1 -5.5t2 -4.5t2 -4.5t2 -4.5l155 1l-6 -123h-124v-3.5v-3.5v-2.5v-2.5v-6v-6v-5.5v-4.5q0 -10 -1 -19t-4 -17q-2 -7 -5.5 -14t-8.5 -13q5 0 11 -1t13 -3t14.5 -4.5t15.5 -4.5
q8 -3 17 -5.5t19 -4.5t20 -3t20 -1q6 0 13.5 0.5t14.5 1.5q8 2 15.5 4t15.5 5q5 2 10 4.5t10 5.5q3 2 5.5 3.5t4.5 2.5q2 2 4.5 3.5t5.5 3.5l-19 -150q-2 -1 -4.5 -1.5t-4.5 -1.5q-2 0 -4.5 -1t-4.5 -2q-3 -1 -5 -1.5t-5 -1.5q-2 0 -4 -0.5t-4 -1.5q-5 -1 -9.5 -1.5
t-9.5 -1.5h-4.5t-4.5 -1h-4h-4q-6 0 -12.5 0.5t-13.5 0.5q-7 1 -13.5 2t-12.5 3q-13 3 -26.5 5.5t-27.5 6.5q-7 2 -13.5 3.5t-13.5 3.5q-7 1 -13.5 3t-13.5 3q-14 3 -28 4.5t-28 1.5q-11 0 -22.5 -1.5t-23.5 -4.5t-24.5 -7t-25.5 -10v116v0h1v0v0v0l1 1h0.5h0.5l3.5 3.5
l2.5 2.5l3.5 3.5t3.5 2.5l4 4t4 5q4 4 8.5 9.5t7.5 10.5q5 8 8 20t3 28v4v5v6v6v1.5v1.5q-1 1 -1 1.5v1.5v2v2v1v2l-86 1l12 115l36 8v0v0z" />
    <glyph glyph-name="currency" unicode="&#xa4;" horiz-adv-x="542" 
d="M164 511q7 6 17 11t23 8t26.5 5t28.5 2h2h2h2.5h1.5q13 -1 25.5 -3t25.5 -5q12 -3 21.5 -8t16.5 -11l69 80l85 -86l-74 -82q8 -10 14.5 -22.5t10.5 -26.5q4 -15 6 -30t2 -32v-6v-6q-1 -3 -1 -6v-6q-1 -6 -1.5 -12t-2.5 -12q-1 -10 -3.5 -20.5t-7.5 -21.5q-4 -10 -8 -20.5
t-9 -19.5l74 -78l-85 -87l-69 80q-9 -7 -19.5 -12.5t-21.5 -8.5q-12 -3 -24 -5t-25 -2h-2h-2h-1.5h-0.5h-0.5h-0.5h-7.5h-7.5t-7 0.5t-6 1.5q-10 1 -20 3t-19 5q-10 3 -18 7.5t-16 9.5l-68 -79l-86 94l74 80q-7 8 -11.5 18t-8.5 22t-6 24t-4 25v3v3q-1 1 -1 2.5v2.5v6v6v0.5
v1.5v1.5v1.5q0 17 2.5 32t6.5 30t9.5 26.5t12.5 18.5l-74 90l80 86l80 -79v0v0zM263 401q-18 -1 -31.5 -7t-23.5 -18t-16 -25t-8 -27q-1 -3 -1.5 -5.5t-0.5 -4.5v-4v-4q0 -19 4.5 -36t14.5 -31q10 -15 23.5 -22t32.5 -7q17 0 30 7t23 21t15 30t6 32v1.5v1.5v1.5v1.5v1.5v1.5
v1.5v1.5q-1 15 -6 29.5t-13 27.5q-8 14 -20 21.5t-29 9.5v1v0z" />
    <glyph glyph-name="yen" unicode="&#xa5;" horiz-adv-x="557" 
d="M339 168v-166h-149v166h-185v110h172l-36 79h-136v111h80l-67 144h159l94 -218l86 218h167l-73 -144h80v-111h-143l-37 -79h180v-110h-192v0v0z" />
    <glyph glyph-name="brokenbar" unicode="&#xa6;" 
 />
    <glyph glyph-name="section" unicode="&#xa7;" horiz-adv-x="433" 
d="M82 379q-8 8 -15 18t-12 23q-6 12 -9 25.5t-4 26.5q-1 2 -1 3.5v2.5v2v2v1v2v1.5v1.5v0.5v1.5v3.5v2.5q2 24 12.5 46t29.5 42t49 30.5t72 10.5q15 0 33 -2t37 -5q20 -4 41.5 -9t44.5 -13v-121q-15 6 -29 11t-27 8t-24 5t-20 2q-13 0 -23 -3.5t-16 -9.5q-7 -6 -10.5 -12.5
t-3.5 -14.5v-3t1 -3q0 -2 0.5 -3.5t0.5 -3.5q2 -4 3.5 -7.5t3.5 -6.5q1 -1 2 -2.5t2 -2.5q2 -2 4 -4.5t4 -4.5l4.5 -4.5t5.5 -4.5q1 -1 2.5 -2t2.5 -2q47 -30 78 -58.5t49 -57.5q17 -28 26 -54.5t9 -49.5q0 -20 -4.5 -38t-12.5 -35q-9 -16 -18.5 -30.5t-19.5 -25.5
q-3 -3 -5.5 -6t-4.5 -6l-2.5 -2.5l-2.5 -2.5q-2 -1 -3 -2t-3 -2q8 -7 14.5 -17.5t11.5 -23.5q5 -15 7.5 -31t2.5 -33v-2v-3q-1 -1 -1 -2.5v-2.5v-4.5v-5.5q-3 -23 -13.5 -44.5t-27.5 -40.5q-18 -20 -47.5 -29.5t-70.5 -9.5q-16 0 -35 2t-41 6t-45.5 10.5t-49.5 15.5v129
q17 -7 33 -13.5t31 -10.5q16 -5 29 -7t23 -2q13 0 23.5 3t18.5 8t11.5 12t3.5 15q0 2 -0.5 5t-1.5 5q0 2 -0.5 3t-0.5 3l-2 4l-2 4q-2 3 -3 5t-3 4q-1 1 -1.5 2t-0.5 2q-1 1 -1.5 2t-1.5 2t-2 1.5t-1 1.5q-1 0 -2 0.5t-2 0.5q-5 4 -13.5 10t-21.5 14t-25.5 17.5t-25.5 20.5
q-18 14 -34 31.5t-30 36.5q-15 20 -22 42.5t-7 47.5q0 17 4.5 35.5t14.5 38.5q9 20 24 40.5t36 42.5v1v0zM162 300l-2 -2l-2 -2q-1 0 -1.5 -0.5t-0.5 -1.5q-1 0 -1.5 -0.5l-1.5 -1.5q-1 -2 -2.5 -4t-2.5 -4q-2 -3 -3 -5.5t-3 -5.5q-2 -6 -3.5 -12t-2.5 -12v-1.5v-1.5v-1.5
v-1.5v-4.5t1 -4.5q0 -3 0.5 -5.5t1.5 -4.5q0 -1 0.5 -2t0.5 -2q1 -3 2.5 -6t3.5 -5q2 -4 4.5 -7t5.5 -6l87 -79q8 2 13.5 7t9.5 12q4 8 6 16t2 17v1.5v1.5q-1 1 -1 2v2v2v2v1v2q0 3 -1 6l-2 6q-1 1 -1.5 2.5t-1.5 2.5q0 2 -0.5 3.5t-1.5 2.5q-3 6 -7 10.5t-9 8.5l-87 75v0v0
z" />
    <glyph glyph-name="dieresis" unicode="&#xa8;" horiz-adv-x="285" 
d="M4 655h104v-94h-104v94v0v0zM153 655h104v-94h-104v94v0v0z" />
    <glyph glyph-name="copyright" unicode="&#xa9;" horiz-adv-x="672" 
d="M308 626q80 -1 141.5 -24.5t101.5 -70.5q41 -46 63.5 -97.5t26.5 -107.5v-7.5v-6.5v-3t1 -3v-3.5v-3.5q-2 -61 -24 -115t-63 -102t-99.5 -71t-135.5 -23q-76 1 -134.5 25.5t-98.5 73.5q-40 48 -61 101.5t-22 111.5v2v2v1.5v1.5v0.5v1.5v2v2v1.5v1.5v0.5v1.5q1 56 21 108
t58 100q38 47 94.5 72t130.5 27v1v0zM308 540q-49 -1 -87.5 -18.5t-66.5 -52.5t-43.5 -73.5t-18.5 -80.5v-1.5v-1.5q-1 -1 -1 -1.5v-0.5v-2v-2q0 -44 14.5 -84.5t42.5 -76.5q29 -36 73 -54t105 -18q53 0 94 17.5t69 53.5q28 35 42.5 74t15.5 81v1.5v1.5v0.5v1.5v2v2v0v1v0v0
v0.5v1.5q-1 42 -15 81t-40 75q-28 36 -67.5 54t-91.5 18l-25 1v0v0zM438 489l13 -88l-22 6t-21 4q-10 2 -19.5 2.5t-17.5 0.5q-27 0 -48 -8t-35 -23q-15 -15 -23 -32t-10 -35v-1.5v-0.5v-1.5v-1.5v-1.5v-0.5v-1.5v-1.5v-2.5v-3.5v-2v-2q2 -19 10.5 -36t24.5 -32t38.5 -22.5
t51.5 -6.5q8 0 17 1t19 4l20 6t21 7l-13 -92l-4 -2t-4 -1q-2 -1 -4 -1.5t-4 -0.5q-7 -2 -13.5 -3.5t-12.5 -2.5q-3 0 -6.5 -0.5t-6.5 -1.5q-10 -1 -19 -2t-18 -1q-48 0 -85.5 14.5t-63.5 44.5q-27 30 -41 63t-15 69v2v2v2v2v0v1v0v0v0.5v1.5q0 35 13 67t40 61q26 29 66 43.5
t92 14.5h4.5h4.5h2h2q3 -1 6.5 -1h7.5q8 -1 15.5 -1.5t14.5 -2.5q3 -1 6 -1.5t5 -0.5q3 -1 6 -1.5t6 -0.5v1v0z" />
    <glyph glyph-name="ordfeminine" unicode="&#xaa;" horiz-adv-x="262" 
d="M39 612l16 2t15 2q7 0 14 1t13 2q13 2 24.5 2.5t20.5 0.5q25 0 42 -3.5t25 -11.5q9 -7 14.5 -15t7.5 -16v-4v-4v-2t1 -2v-2v-2v-188h-82v103q-10 -3 -19 -6t-16 -7t-12 -7.5t-7 -8.5q-2 -2 -3.5 -4t-2.5 -4v-4v-4q0 -4 1 -7t5 -6q3 -3 7 -4t9 -1h3t4 1q1 0 1.5 0.5
t1.5 0.5q1 1 2.5 1.5t3.5 1.5h1.5t1.5 1l0.5 0.5t1.5 0.5q2 0 2.5 0.5l1.5 1.5l-12 -56q-1 -1 -2 -1.5l-1 -0.5q-1 -1 -2 -1h-2h-3.5h-2.5h-1.5h-1.5q-4 -1 -7 -1.5t-6 -0.5h-7h-5q-22 0 -37.5 4.5t-23.5 14.5t-12 23.5t-4 31.5v2.5v2.5v1.5t1 1.5v1.5v1.5v0v1v0v1v0v0v1.5
t1 1.5v0.5v1.5v1.5v1.5v0.5v1.5q1 12 6.5 22t16.5 17q10 7 21.5 13t24.5 10q6 2 12 4.5t12 3.5q6 2 11.5 4t10.5 4t9 3.5t7 3.5t5 4t2 5v0v1q-1 0 -1 0.5v0.5v0.5v1.5v0v1h-1v0v0.5v1.5v0v1h-1v0v0v1v0v0q-1 1 -2 1.5t-2 1.5t-2 1.5t-2 0.5t-2.5 0.5t-2.5 1.5q-2 0 -3 0.5
t-3 0.5h-0.5h-0.5h-0.5h-0.5h-1.5h-0.5q-4 0 -8 -0.5t-9 -1.5q-4 -1 -8.5 -2t-8.5 -2t-7.5 -2.5t-6.5 -3.5q-2 -1 -4 -1.5t-3 -0.5q-2 -1 -3.5 -1.5t-2.5 -1.5l-4 -2t-4 -1q-2 -1 -3.5 -2t-3.5 -2q-4 -1 -6.5 -2.5t-4.5 -2.5l5 73v0v0z" />
    <glyph glyph-name="guillemotleft" unicode="&#xab;" horiz-adv-x="376" 
d="M76 386h106l-63 -151l63 -154h-106l-73 154l73 151v0v0zM243 386h105l-61 -151l61 -154h-105l-74 154l74 151v0v0z" />
    <glyph glyph-name="logicalnot" unicode="&#xac;" 
 />
    <glyph glyph-name="sfthyphen" unicode="&#xad;" horiz-adv-x="425" 
 />
    <glyph glyph-name="registered" unicode="&#xae;" horiz-adv-x="674" 
d="M317 626q83 -1 145 -25.5t103 -74.5q40 -49 60.5 -104.5t20.5 -115.5q-3 -61 -24 -115.5t-61 -104.5q-40 -49 -99.5 -73.5t-138.5 -24.5q-78 0 -137 23.5t-99 72.5t-60.5 103t-21.5 113v1.5v1.5v1.5v1.5v0v1v0v0v0.5v1.5q0 59 20.5 113.5t59.5 103.5q40 50 98 74.5
t134 24.5v1v0zM182 489h198q27 -3 47 -12.5t33 -24.5q14 -16 21.5 -32.5t9.5 -34.5v-1.5v-0.5v-1.5v-1.5v-2v-2v-2v-1v-2v-2v-1.5v-1.5q-1 -1 -1 -1.5v-1.5q-2 -16 -7.5 -30t-15.5 -28q-10 -13 -22.5 -22t-27.5 -13l67 -138q14 11 25.5 29t20.5 43t14 51t5 54v4.5v5.5v3.5
v2.5q-1 2 -1 3.5v2.5q-3 38 -16.5 73t-39.5 67q-25 32 -67.5 49.5t-101.5 18.5q-49 0 -86 -12.5t-61 -38.5q-24 -25 -39.5 -53.5t-23.5 -59.5l-4 -20t-3 -20t-1.5 -19.5t-0.5 -18.5v-2v-2v-2v-2v-2.5v-2.5v-3v-3v-2.5t1 -2.5q0 -2 0.5 -3t0.5 -3v-2.5v-3.5v-1.5t1 -1.5v-1.5
v-1.5q4 -43 22 -77.5t51 -58.5q32 -24 67.5 -36.5t73.5 -14.5h1.5h0.5h0.5h1.5h2.5h1.5h2h2h2h2h2h2t2 0.5t2 0.5q18 1 36 5t35 11t32.5 16.5t29.5 22.5l-105 1l-74 189l0.5 -0.5l0.5 -0.5l0.5 -0.5t1.5 -0.5h0.5h1.5q0 -1 0.5 -1h1.5q2 -1 5 -1.5t6 -0.5q2 -1 4.5 -1h4.5
q11 0 20 3t16 10q7 6 11.5 13.5t5.5 14.5v2v2v1.5t1 1.5v0.5v1.5q0 8 -2 14.5t-7 13.5q-5 6 -12 9.5t-17 4.5l-62 1v-276h-98v364v0v0z" />
    <glyph glyph-name="overstore" unicode="&#xaf;" 
 />
    <glyph glyph-name="glyph113" unicode="&#xb0;" 
 />
    <glyph glyph-name="plusminus" unicode="&#xb1;" horiz-adv-x="40" 
 />
    <glyph glyph-name="twosuperior" unicode="&#xb2;" 
 />
    <glyph glyph-name="threesuperior" unicode="&#xb3;" 
 />
    <glyph glyph-name="acute" unicode="&#xb4;" horiz-adv-x="237" 
d="M47 648h161l-81 -101h-123l43 101v0v0z" />
    <glyph glyph-name="mu" unicode="&#xb5;" horiz-adv-x="40" 
 />
    <glyph glyph-name="paragraph" unicode="&#xb6;" horiz-adv-x="442" 
d="M194 321q-5 -4 -10.5 -7t-11.5 -6t-12 -4.5t-13 -2.5h-2h-1q-1 -1 -2 -1h-2h-3.5h-3.5h-2.5h-2.5h-3.5h-2.5q-3 0 -6 0.5t-5 1.5q-19 4 -36.5 15t-34.5 29q-16 18 -25.5 44t-11.5 60v0.5v1.5q-1 0 -1 0.5v0.5v1v2v0v1q-1 0 -1 0.5v0.5v1.5v1.5q0 38 9.5 65.5t28.5 46.5
t40 31t44 17q5 1 10 1.5t9 1.5h5.5t4.5 1h4.5h5.5l255 1v-826h-82v761h-55v-761h-86v521v0v0zM194 386v175q-14 -1 -26.5 -3t-21.5 -7q-10 -4 -18 -9.5t-15 -10.5q0 -1 -1 -2.5t-1 -2.5q-1 -3 -2 -5.5t-2 -5.5q-2 -4 -3.5 -8.5t-2.5 -9.5q-1 -3 -1.5 -6t-0.5 -5
q-1 -3 -1 -5.5v-4.5v-1.5v-0.5v-1.5v-1.5v-2t1 -2v-2.5v-3.5q0 -1 0.5 -2t1.5 -2q2 -16 7 -30.5t13 -27.5t18 -19t23 -6h4t4 1q2 0 3 0.5t2 1.5q1 0 2.5 0.5t2.5 1.5q1 0 2.5 0.5t2.5 1.5h1.5t1.5 1l0.5 0.5t1.5 0.5h0.5h1.5l0.5 0.5l1.5 1.5v1v0z" />
    <glyph glyph-name="middot" unicode="&#xb7;" 
 />
    <glyph glyph-name="cedilla" unicode="&#xb8;" horiz-adv-x="246" 
d="M87 -42h130l-48 -122h-162l80 122v0v0z" />
    <glyph glyph-name="onesuperior" unicode="&#xb9;" 
 />
    <glyph glyph-name="ordmasculine" unicode="&#xba;" horiz-adv-x="277" 
d="M127 634q29 -1 51 -10.5t38 -27.5q16 -19 25 -39t10 -43v-2v-2v-2v-2v-10q0 -26 -7.5 -49.5t-22.5 -43.5q-15 -21 -37 -31t-51 -10h-1.5h-1.5h-1.5t-0.5 1h-1v0v0v0h-2h-1h-1.5t-0.5 1h-1v0q-27 0 -48.5 10t-37.5 30t-24 42t-10 47v2v2v2v2v1.5v1.5v0.5v1.5v3.5v2.5
q2 23 10.5 43t23.5 39q16 19 38.5 28.5t53.5 10.5v1v0zM127 561q-7 -1 -14.5 -5t-12.5 -12q-6 -8 -9.5 -16.5t-5.5 -17.5v-2v-2q-1 -1 -1 -2v-2v-2v-1v-2v-2v-2v-2v-2v-1q1 -10 4 -19t8 -17t13 -12t18 -4t17.5 4.5t12.5 13.5t8 19t4 21v0v1v0v0v0.5v1.5v0v1v0v0v0.5v1.5
q-1 11 -4 21t-8 20q-5 9 -12.5 14t-17.5 5v1v0z" />
    <glyph glyph-name="guillemotright" unicode="&#xbb;" horiz-adv-x="376" 
d="M62 235l-55 151h105l69 -151l-69 -154h-105l55 154v0v0zM236 235l-55 151h104l67 -151l-67 -154h-104l55 154v0v0z" />
    <glyph glyph-name="onequarter" unicode="&#xbc;" 
 />
    <glyph glyph-name="onehalf" unicode="&#xbd;" horiz-adv-x="40" 
 />
    <glyph glyph-name="threequarters" unicode="&#xbe;" 
 />
    <glyph glyph-name="questiondown" unicode="&#xbf;" horiz-adv-x="418" 
d="M148 271h137v-5.5v-4.5v-2.5t1 -2.5v-3v-2v0v0v-1v0v-1v0v-2.5t1 -2.5v-2v-2v-4v-4q0 -9 -0.5 -18t-2.5 -18q-1 -10 -3.5 -19.5t-5.5 -19.5q-4 -9 -8.5 -18t-9.5 -18t-12 -17.5t-15 -16.5q-4 -4 -8 -7.5t-7 -7.5q-4 -4 -7 -7.5t-5 -7.5q-5 -7 -8.5 -13t-6.5 -12
q-2 -6 -3 -11.5t-1 -10.5q0 -9 4 -15.5t13 -12.5t22.5 -9t31.5 -3q13 0 27.5 1.5t31.5 4.5t36 8t41 12l-20 -146q-2 1 -4 1t-4 -1q-2 0 -4 -0.5t-4 -0.5h-4t-4 -1q-2 0 -4 -0.5t-4 -0.5q-9 0 -18 -1l-18 -2q-4 0 -9 -0.5t-9 -1.5q-5 0 -9.5 -0.5t-9.5 -0.5h-6t-6 -1h-7h-6
h-6.5t-6.5 -1h-6h-6q-40 0 -76.5 7.5t-68.5 21.5q-32 15 -48 45t-16 75q0 24 5.5 45t16.5 39q11 17 23.5 33.5t26.5 32.5q11 14 22.5 29t21.5 30t16.5 33.5t8.5 39.5v1v0zM136 468h161v-154h-161v154v0v0z" />
    <glyph glyph-name="Agrave" unicode="&#xc0;" horiz-adv-x="689" 
d="M245 619h198l216 -617h-173l-56 180h-191l-63 -180h-172l241 617v0v0zM276 307h122l-55 175l-67 -175v0v0zM368 809l43 -101h-123l-75 101h155v0v0z" />
    <glyph glyph-name="Aacute" unicode="&#xc1;" horiz-adv-x="689" 
d="M245 619h198l216 -617h-173l-56 180h-191l-63 -180h-172l241 617v0v0zM276 307h122l-55 175l-67 -175v0v0zM306 809h162l-82 -101h-123l43 101v0v0z" />
    <glyph glyph-name="Acircumflex" unicode="&#xc2;" horiz-adv-x="689" 
d="M245 619h198l216 -617h-173l-56 180h-191l-63 -180h-172l241 617v0v0zM276 307h122l-55 175l-67 -175v0v0zM257 809h160l44 -109h-93l-31 44l-31 -44h-93l44 109v0v0z" />
    <glyph glyph-name="Atilde" unicode="&#xc3;" horiz-adv-x="689" 
d="M245 619h198l216 -617h-173l-56 180h-191l-63 -180h-172l241 617v0v0zM276 307h122l-55 175l-67 -175v0v0zM226 715v1v2v1.5v1.5v0.5v1.5v1.5v1.5v0.5v1.5v2v2q-1 0 -1 1v2v3.5v2.5q0 23 4 39.5t11 25.5q8 9 17.5 13.5t19.5 4.5h3h3q1 -1 2.5 -1h2.5q2 0 4.5 -0.5
t5.5 -1.5q5 -1 10.5 -3t10.5 -4q5 -3 9.5 -5.5t8.5 -4.5l1.5 -1.5t1.5 -0.5q0 -1 1 -1.5t2 -0.5t1.5 -0.5l0.5 -0.5q0 -1 0.5 -1.5t1.5 -0.5q2 -1 2.5 -1.5t1.5 -0.5l1.5 -1.5t1.5 -0.5q0 -1 0.5 -1.5t1.5 -0.5l2 -2t2 -1l6 -6t7 -5q3 -2 6 -3t6 -1h1h2t1.5 1t1.5 2l1.5 1.5
l1.5 1.5t2.5 3.5t3.5 5.5q2 5 3 11.5t2 15.5l63 1v-29q0 -26 -4.5 -44t-12.5 -28t-17 -15.5t-19 -5.5h-1.5h-0.5v0v0h-1h-1h-2h-2h-1.5t-1.5 1h-1.5h-0.5q-4 1 -8 2.5t-7 2.5l-7 3.5t-6 2.5l-1 0.5l-1 0.5q-1 1 -2 1.5t-2 1.5q-2 1 -3.5 2t-2.5 2q-2 1 -3.5 2t-3.5 2
l-3.5 3.5t-3.5 2.5h-1.5t-0.5 1q-1 0 -1.5 0.5l-1.5 1.5q-1 0 -1.5 0.5t-0.5 1.5q-1 0 -1.5 0.5t-1.5 0.5q-4 3 -8.5 5.5t-8.5 4.5t-8 3t-7 1q-2 0 -4 -1l-4 -2l-2 -2l-2 -2q-2 -4 -3.5 -9.5t-2.5 -13.5l-62 1v0v0z" />
    <glyph glyph-name="Adieresis" unicode="&#xc4;" horiz-adv-x="689" 
d="M245 619h198l216 -617h-173l-56 180h-191l-63 -180h-172l241 617v0v0zM276 307h122l-55 175l-67 -175v0v0zM226 809h105v-94h-105v94v0v0zM374 809h106v-94h-106v94v0v0z" />
    <glyph glyph-name="Aring" unicode="&#xc5;" horiz-adv-x="689" 
d="M245 619h198l216 -617h-173l-56 180h-191l-63 -180h-172l241 617v0v0zM276 307h122l-55 175l-67 -175v0v0zM337 845q20 -1 36 -7t27 -18t18.5 -25t10.5 -27v-2.5t1 -2.5v-3v-2v-4v-4v-2v-2v-2v-2q-1 -15 -8 -29t-18 -27t-26.5 -19t-34.5 -6q-23 0 -40.5 7t-30.5 21
q-12 14 -18 29.5t-6 32.5v0v1v0v0v0.5v1.5v1.5v1.5v0.5v1.5v1.5v1.5l0.5 0.5t0.5 1.5q1 15 7.5 28.5t17.5 26.5q11 12 27 18.5t36 6.5v1v0zM337 787q-8 -3 -14 -6.5t-9 -8.5q-2 -2 -3.5 -4t-2.5 -4q-1 -3 -1.5 -5t-0.5 -4v-1.5v-1.5v-1.5v-0.5q2 -5 4.5 -9.5t6.5 -9.5
q5 -4 8.5 -6.5t7.5 -2.5v-0.5t1 -0.5v0v0h1.5h1.5v0h1v-1v0h0.5h1.5v0v0v-1v0h0.5h1.5q6 0 11 2.5t9 7.5t5.5 10.5t1.5 12.5v0.5v1.5v1.5v1.5q-1 5 -3 10.5t-6 9.5q-4 5 -9.5 7t-13.5 2v1v0z" />
    <glyph glyph-name="AE" unicode="&#xc6;" horiz-adv-x="763" 
d="M234 619h501v-137h-248l25 -110h185v-130h-160l24 -117h174v-123h-310l-37 188h-148l-69 -188h-166l229 617v0v0zM375 307l-36 189l-62 -189h98v0v0z" />
    <glyph glyph-name="Ccedilla" unicode="&#xc7;" horiz-adv-x="500" 
d="M224 -42h128l-49 -122h-161l82 122v0v0zM452 619l18 -144q-5 2 -10.5 3t-11.5 3q-6 1 -12 2.5t-13 2.5q-13 2 -26.5 4t-27.5 3h-3.5t-3.5 1h-2.5h-3.5h-7h-6h-1.5h-1.5h-0.5h-1.5q-33 -1 -63.5 -10.5t-58.5 -27.5t-41.5 -52t-13.5 -84q0 -51 11.5 -87.5t35.5 -59.5
q23 -23 53 -34.5t67 -11.5q14 0 29.5 1.5t31.5 5.5q16 3 32.5 8t32.5 12q2 0 4 0.5t4 1.5l4 2l4 2l-18 -144q-20 -5 -39.5 -8.5t-38.5 -5.5q-18 -1 -35 -2t-33 -1q-73 0 -125.5 18t-87.5 55q-34 38 -56 79t-31 87q-1 9 -2.5 18t-2.5 18q0 5 -0.5 9.5t-0.5 9.5v9v9v2v2v2.5
v2.5v2v2v1.5t1 0.5v1.5v0.5v10t1 10q0 5 1 10l2 10q7 50 29.5 96t60.5 88t93 63t128 21q14 0 30.5 -1t33.5 -3t35 -5.5t37 -8.5v1v0z" />
    <glyph glyph-name="Egrave" unicode="&#xc8;" horiz-adv-x="450" 
d="M3 619h420v-137h-259v-110h216v-130h-216v-110h259v-130h-420v617v0v0zM243 794l44 -103h-123l-75 103h154v0v0z" />
    <glyph glyph-name="Eacute" unicode="&#xc9;" horiz-adv-x="450" 
d="M3 619h420v-137h-259v-110h216v-130h-216v-110h259v-130h-420v617v0v0zM170 801h159l-80 -101h-124l45 101v0v0z" />
    <glyph glyph-name="Ecircumflex" unicode="&#xca;" horiz-adv-x="450" 
d="M3 619h420v-137h-259v-110h216v-130h-216v-110h259v-130h-420v617v0v0zM119 801h161l43 -110h-91l-32 45l-30 -45h-94l43 110v0v0z" />
    <glyph glyph-name="Edieresis" unicode="&#xcb;" horiz-adv-x="450" 
d="M3 619h420v-137h-259v-110h216v-130h-216v-110h259v-130h-420v617v0v0zM76 801h106v-93h-106v93v0v0zM225 801h104v-93h-104v93v0v0z" />
    <glyph glyph-name="Igrave" unicode="&#xcc;" horiz-adv-x="237" 
d="M47 619h161v-617h-161v617v0v0zM158 794l44 -103h-124l-74 103h154v0v0z" />
    <glyph glyph-name="Iacute" unicode="&#xcd;" horiz-adv-x="244" 
d="M5 619h162v-617h-162v617v0v0zM55 801h161l-81 -101h-124l44 101v0v0z" />
    <glyph glyph-name="Icircumflex" unicode="&#xce;" horiz-adv-x="277" 
d="M47 619h161v-617h-161v617v0v0zM47 801h161l43 -110h-93l-31 45l-31 -45h-92l43 110v0v0z" />
    <glyph glyph-name="Idieresis" unicode="&#xcf;" horiz-adv-x="287" 
d="M39 619h161v-617h-161v617v0v0zM3 801h104v-93h-104v93v0v0zM150 801h105v-93h-105v93v0v0z" />
    <glyph glyph-name="Eth" unicode="&#xd0;" horiz-adv-x="40" 
 />
    <glyph glyph-name="Ntilde" unicode="&#xd1;" horiz-adv-x="565" 
d="M397 211v408h142v-617h-191l-204 384v-384h-143v617h191l205 -408v0v0zM156 708v0.5v1.5q-1 1 -1 1.5v1.5v2v2v1v2v1.5v1.5q-1 1 -1 1.5v1.5v3.5v2.5q0 24 4 41t12 26t18 14t20 5h1h2q1 -1 2 -1h2h2h2q0 -1 1 -1h2q6 -1 12 -3t10 -4q5 -3 10.5 -5.5t9.5 -4.5l1.5 -1.5
l0.5 -0.5q0 -1 0.5 -1.5t1.5 -0.5q2 -1 2.5 -1.5t1.5 -0.5t1.5 -0.5t1.5 -0.5q0 -1 0.5 -1.5t1.5 -0.5q1 -1 2 -1.5t2 -0.5l1.5 -1.5l0.5 -0.5q0 -1 0.5 -1.5t1.5 -0.5q2 -1 2.5 -2t1.5 -1q4 -3 7 -6t6 -5q1 -1 2 -1.5t2 -0.5q2 -1 4.5 -1.5t3.5 -0.5h1.5h1.5t2 1l2 2
q2 2 4 5t4 7q2 5 3.5 11.5t1.5 15.5l63 1v-29q0 -27 -4.5 -45t-12.5 -28t-17 -15t-18 -5h-1.5h-0.5v0v0h-1v0h-2.5h-3.5h-1.5t-0.5 1h-1.5h-1.5q-4 1 -8 2.5t-8 2.5q-4 2 -7.5 4t-6.5 4q-1 0 -2.5 1t-3.5 2l-0.5 0.5l-1.5 1.5q-1 0 -1.5 0.5l-0.5 0.5q-1 0 -2 0.5t-1 1.5
q-1 0 -2 0.5t-2 1.5t-2 1.5t-1 1.5q-1 1 -2 1.5t-2 1.5q-1 0 -2 1t-3 2q-1 1 -2 1.5l-3 1.5q-4 3 -8.5 5.5t-8.5 4.5t-8 3t-6 1q-4 0 -7 -2t-5 -5q-2 -4 -4 -9.5t-3 -13.5l-61 1v0v0z" />
    <glyph glyph-name="Ograve" unicode="&#xd2;" 
 />
    <glyph glyph-name="Oacute" unicode="&#xd3;" horiz-adv-x="666" 
d="M323 626q79 -1 138 -25t99 -71q39 -48 59.5 -100.5t20.5 -111.5v-11q0 -61 -21 -116t-63 -105q-42 -49 -103 -73.5t-142 -24.5q-73 0 -130 24.5t-96 73.5q-40 50 -60 105t-22 115v2v2v1.5v1.5v0.5v1.5q0 58 19 111t57 102q38 48 97.5 72.5t139.5 24.5l7 1v0v0zM317 489
q-37 -1 -64 -15.5t-46 -43.5t-28.5 -61t-9.5 -67v-1.5v-0.5v0v0v-1v0v-2v-1v-2v-2v-2v-1v-2v-2q2 -31 12 -60.5t28 -55.5q19 -27 46 -40t62 -13q38 0 67 14.5t47 42.5q19 29 28.5 61t9.5 66v0.5v1.5v2v2q-1 34 -11 65.5t-29 59.5q-19 29 -45.5 43t-61.5 14l-5 1v0v0z
M293 809h160l-80 -101h-124l44 101v0v0z" />
    <glyph glyph-name="Ocircumflex" unicode="&#xd4;" horiz-adv-x="674" 
d="M329 634q79 -1 138 -25t99 -72q39 -48 59.5 -100.5t20.5 -110.5v-12q0 -61 -21.5 -116t-62.5 -105q-41 -49 -102.5 -73t-142.5 -24q-73 0 -129 24t-96 73q-40 50 -60.5 104t-22.5 114v2.5v2.5v3.5v2.5v0v1v0v0v0.5v1.5q0 57 19.5 110t57.5 101t97.5 72.5t138.5 24.5l7 1
v0v0zM323 496q-37 -1 -64 -15.5t-46 -43.5t-28.5 -61t-9.5 -67v-1.5v-0.5v0v0v-1v0v-2.5v-3.5v-1.5v-0.5v-1.5v-1.5q1 -32 11 -61.5t29 -56.5t46 -40t62 -13q38 0 67 14.5t48 42.5q19 29 28.5 61t9.5 66v2v2v2v2q-1 33 -11.5 64t-29.5 59t-45.5 42t-61.5 14l-5 1v0v0z
M238 801h160l44 -110h-94l-31 45l-30 -45h-93l44 110v0v0z" />
    <glyph glyph-name="Otilde" unicode="&#xd5;" horiz-adv-x="666" 
d="M323 626q79 -1 138 -25t99 -71q39 -48 59.5 -100.5t20.5 -111.5v-11q0 -61 -21 -116t-63 -105q-42 -49 -103 -73.5t-142 -24.5q-73 0 -130 24.5t-96 73.5q-40 50 -60 105t-22 115v2v2v1.5v1.5v0.5v1.5q0 58 19 111t57 102q38 48 97.5 72.5t139.5 24.5l7 1v0v0zM317 489
q-37 -1 -64 -15.5t-46 -43.5t-28.5 -61t-9.5 -67v-1.5v-0.5v0v0v-1v0v-2v-1v-2v-2v-2v-1v-2v-2q2 -31 12 -60.5t28 -55.5q19 -27 46 -40t62 -13q38 0 67 14.5t47 42.5q19 29 28.5 61t9.5 66v0.5v1.5v2v2q-1 34 -11 65.5t-29 59.5q-19 29 -45.5 43t-61.5 14l-5 1v0v0z
M200 715v2.5v2.5v2v2v1v2q-1 2 -1 3.5v2.5v3.5v2.5q0 24 4 41t12 27q8 9 17.5 14t20.5 5h2h2q1 -1 2 -1h2h3t2 -1q1 0 2.5 -0.5t2.5 -0.5q5 -1 9.5 -3t8.5 -4q5 -2 9 -4.5t8 -4.5q1 0 1.5 -0.5t0.5 -1.5q1 0 2.5 -0.5t1.5 -1.5l3 -1.5t2 -1.5t2 -1.5t2 -0.5q0 -1 1 -1.5
t2 -1.5l1.5 -1.5t1.5 -0.5q1 -1 2 -1.5t2 -1.5q0 -1 0.5 -1.5t1.5 -0.5v0h1v0v0l6 -6t6 -5q4 -2 7 -3t5 -1t3.5 0.5t3.5 1.5l3 3t3 4q3 5 5.5 13t3.5 20l62 1v-29q0 -26 -4.5 -44t-12.5 -28l-6 -6l-6 -6q-6 -4 -11.5 -6.5t-12.5 -2.5h-1.5h-0.5v0v0h-1v0h-1.5h-2.5h-0.5
h-1.5h-0.5t-1.5 1h-1.5h-1.5q-4 1 -7.5 2.5t-6.5 2.5q-4 2 -7.5 3.5t-5.5 2.5t-3.5 2t-3.5 2q-1 1 -2.5 2t-3.5 2q-1 0 -2 0.5t-1 1.5q-1 0 -2 0.5t-2 1.5q0 1 -1 1t-1 1l-2 2l-2 2q-1 0 -2.5 1t-2.5 2t-2.5 2t-3.5 2q-4 2 -8 4.5t-9 4.5q-1 0 -2 0.5t-2 0.5q-3 2 -5.5 2.5
t-4.5 0.5t-4 -1l-4 -2l-2 -2l-2 -2q-2 -4 -4 -9.5t-2 -13.5l-62 1v0v0z" />
    <glyph glyph-name="Odieresis" unicode="&#xd6;" horiz-adv-x="666" 
d="M323 626q79 -1 138 -25t99 -71q39 -48 59.5 -100.5t20.5 -111.5v-11q0 -61 -21 -116t-63 -105q-42 -49 -103 -73.5t-142 -24.5q-73 0 -130 24.5t-96 73.5q-40 50 -60 105t-22 115v2v2v1.5v1.5v0.5v1.5q0 58 19 111t57 102q38 48 97.5 72.5t139.5 24.5l7 1v0v0zM317 489
q-37 -1 -64 -15.5t-46 -43.5t-28.5 -61t-9.5 -67v-1.5v-0.5v0v0v-1v0v-2v-1v-2v-2v-2v-1v-2v-2q2 -31 12 -60.5t28 -55.5q19 -27 46 -40t62 -13q38 0 67 14.5t47 42.5q19 29 28.5 61t9.5 66v0.5v1.5v2v2q-1 34 -11 65.5t-29 59.5q-19 29 -45.5 43t-61.5 14l-5 1v0v0z
M194 809h105v-94h-105v94v0v0zM342 809h105v-94h-105v94v0v0z" />
    <glyph glyph-name="multiply" unicode="&#xd7;" 
 />
    <glyph glyph-name="Oslash" unicode="&#xd8;" horiz-adv-x="664" 
d="M408 626l43 74h136l-69 -124q26 -19 46.5 -45.5t35.5 -59.5q14 -33 22 -67.5t10 -70.5v-2.5t1 -3.5v-2.5v-3.5v-5.5v-4.5v-5.5v-4.5v-2v-2q-1 -2 -1 -3v-2q-2 -57 -22.5 -108.5t-57.5 -98.5t-93 -70t-131 -23q-12 0 -24 0.5t-25 2.5q-6 1 -12.5 2t-12.5 1q-7 1 -13.5 1.5
t-12.5 1.5l-36 -64h-137l61 115q-25 14 -45.5 40t-36.5 63q-17 37 -25 76.5t-8 81.5v3.5v3.5v3v3v3.5t1 3.5v3v4q4 54 24 104t57 96q37 45 96 68t141 23q10 0 20 -0.5t22 -1.5q11 -1 22.5 -1.5t23.5 -2.5v1v0zM432 444l-161 -312q3 -1 6.5 -1.5t7.5 -1.5q2 0 3.5 -0.5
t3.5 -0.5q5 -1 10 -1h9q28 0 51 7t42 21t32.5 36t20.5 50q1 3 1.5 5.5t0.5 5.5t0.5 6t1.5 6q1 6 1.5 12t1.5 13v4.5v5.5v4.5v5.5v4v4v4v4q-1 17 -3.5 34t-7.5 33q-4 16 -9 28.5t-12 22.5v1v0zM357 496h-4h-4h-2.5t-2.5 1h-0.5h-0.5h-1.5h-1.5h-4h-4h-3.5h-2.5h-1.5h-1.5
q-25 0 -48.5 -7.5t-44.5 -21.5q-22 -15 -36 -37.5t-21 -52.5q-1 -4 -2 -8.5t-1 -9.5q-1 -5 -2 -10.5t-1 -10.5v-2.5v-3.5v-2v-2v-10.5t1 -11.5v-6t1 -5q0 -3 0.5 -6t0.5 -6q2 -16 5.5 -31t7.5 -29q4 -13 9 -22t12 -13l153 307v0v0z" />
    <glyph glyph-name="Ugrave" unicode="&#xd9;" horiz-adv-x="549" 
d="M358 619h160v-429q0 -49 -20 -87t-60 -64t-83.5 -38.5t-91.5 -12.5h-2h-2h-2h-2h-2h-1h-2h-2q-44 2 -84.5 15.5t-78.5 39.5q-37 26 -57 64t-23 89v423h162v-363q0 -31 7 -54.5t21 -40.5q14 -16 30 -25t33 -11h1.5h1.5h2h2v0h1v0v0h2h2q17 1 31.5 9t28.5 23t21 36t7 48
v378v0v0zM302 809l43 -101h-123l-75 101h155v0v0z" />
    <glyph glyph-name="Uacute" unicode="&#xda;" horiz-adv-x="549" 
d="M358 619h160v-429q0 -49 -20 -87t-60 -64t-83.5 -38.5t-91.5 -12.5h-2h-2h-2h-2h-2h-1h-2h-2q-44 2 -84.5 15.5t-78.5 39.5q-37 26 -57 64t-23 89v423h162v-363q0 -31 7 -54.5t21 -40.5q14 -16 30 -25t33 -11h1.5h1.5h2h2v0h1v0v0h2h2q17 1 31.5 9t28.5 23t21 36t7 48
v378v0v0zM228 801h161l-81 -101h-123l43 101v0v0z" />
    <glyph glyph-name="Ucircumflex" unicode="&#xdb;" horiz-adv-x="549" 
d="M358 619h160v-429q0 -49 -20 -87t-60 -64t-83.5 -38.5t-91.5 -12.5h-2h-2h-2h-2h-2h-1h-2h-2q-44 2 -84.5 15.5t-78.5 39.5q-37 26 -57 64t-23 89v423h162v-363q0 -31 7 -54.5t21 -40.5q14 -16 30 -25t33 -11h1.5h1.5h2h2v0h1v0v0h2h2q17 1 31.5 9t28.5 23t21 36t7 48
v378v0v0zM173 809h160l44 -109h-94l-30 44l-31 -44h-93l44 109v0v0z" />
    <glyph glyph-name="Udieresis" unicode="&#xdc;" horiz-adv-x="549" 
d="M358 619h160v-429q0 -49 -20 -87t-60 -64t-83.5 -38.5t-91.5 -12.5h-2h-2h-2h-2h-2h-1h-2h-2q-44 2 -84.5 15.5t-78.5 39.5q-37 26 -57 64t-23 89v423h162v-363q0 -31 7 -54.5t21 -40.5q14 -16 30 -25t33 -11h1.5h1.5h2h2v0h1v0v0h2h2q17 1 31.5 9t28.5 23t21 36t7 48
v378v0v0zM147 801h106v-93h-106v93v0v0zM295 801h107v-93h-107v93v0v0z" />
    <glyph glyph-name="Yacute" unicode="&#xdd;" 
 />
    <glyph glyph-name="Thorn" unicode="&#xde;" horiz-adv-x="40" 
 />
    <glyph glyph-name="germandbls" unicode="&#xdf;" horiz-adv-x="483" 
d="M5 468q0 29 13.5 55.5t40.5 51.5t66 37.5t91 12.5l10 1q41 -1 71 -10.5t49 -27.5q20 -19 31.5 -39t15.5 -43q1 -4 1.5 -7.5t0.5 -6.5v-3t1 -3v-3.5v-3.5q0 -13 -2.5 -26t-6.5 -25t-9.5 -20.5t-12.5 -14.5q-10 -9 -17 -17t-12 -15t-7.5 -12.5t-2.5 -10.5q0 -2 0.5 -4.5
t1.5 -4.5t2.5 -4.5t3.5 -4.5l4 -4l4 -4q2 -3 5 -5l6 -4t7 -4.5t7 -4.5q4 -3 8 -5.5t8 -4.5q11 -9 22 -22t21 -31q11 -18 17 -37t10 -39v-4t1 -4v-4v-4v-4t1 -3v-3.5v-3.5q0 -25 -9.5 -48t-26.5 -43q-19 -19 -51 -28.5t-77 -9.5q-9 0 -18.5 0.5t-19.5 1.5q-6 1 -11.5 1.5
t-10.5 0.5t-10.5 0.5t-11.5 0.5l-11 131q0 -1 1 -2t2 -1h0.5h1.5q0 -1 0.5 -1h0.5q7 -3 13 -5l12 -4q5 -1 9 -2t8 -1h2.5h2.5q13 0 22.5 4t15.5 12q7 8 11 16.5t5 18.5v0.5v1.5v1.5v1.5v0.5v1.5v2v2q-1 5 -2 10.5t-3 10.5q-1 5 -4 9.5t-7 8.5l-4 4l-4 4l-3.5 3.5l-2.5 2.5
l-1.5 1.5l-1.5 1.5l-2 2t-3 2q0 1 -0.5 1.5l-1.5 1.5l-0.5 0.5l-1.5 1.5q-10 11 -20 21.5t-19 21.5t-14 25.5t-6 30.5v0.5v1.5q-1 0 -1 0.5v0.5v0.5v1.5v0v1q-1 0 -1 0.5v0.5v0.5v1.5q0 11 2 19t7 14t10 11.5t11 10.5v0l1 1h0.5h0.5l1 0.5t2 1.5q4 3 7.5 6.5l7.5 7.5t7 9
t6 11v0l1 1v0.5v1.5v1.5v1.5v1.5v1.5v0.5v1.5v1.5v1.5q0 8 -4.5 15.5t-12.5 14.5q-8 6 -17 9.5t-20 4.5h-1.5h-0.5v0v0h-1v0v0v0h-1v0v0v0h-1v0q-10 -1 -19.5 -5.5t-17.5 -12.5t-12 -21.5t-4 -32.5v-427h-149v466v0v0z" />
    <glyph glyph-name="agrave" unicode="&#xe0;" horiz-adv-x="451" 
d="M61 437q28 8 54 13.5t49 9.5t43.5 6t39.5 2q44 0 77 -9t53 -27t31 -39t12 -44v-347h-149v202q-5 -4 -10.5 -7.5t-10.5 -6.5t-11 -5l-12 -4q-1 0 -2 -0.5l-1 -0.5q-1 -1 -2 -1.5t-2 -0.5q-2 -1 -3.5 -1.5t-3.5 -0.5q-10 -4 -18 -7.5t-16 -7.5q-7 -4 -12 -9.5t-8 -13.5
q-1 -1 -1 -1.5v-1.5v-1.5v-0.5q-1 -1 -1 -1.5v-1.5v-1.5v-0.5q-1 -1 -1 -1.5v-1.5v-2v-1q0 -7 2.5 -13t9.5 -12q5 -6 13.5 -8.5t18.5 -2.5h6t7 1t7.5 2t7.5 2v0l1 1h0.5h0.5h0.5t1.5 1h0.5h0.5h2t2 1h0.5h0.5v0v1h0.5h1.5l-18 -100q-2 1 -4 1h-4t-3.5 -0.5t-2.5 -0.5
t-1.5 -0.5t-1.5 -0.5h-5.5t-4.5 -1h-4.5h-5.5h-5t-5 -1h-4h-4q-42 0 -72.5 8.5t-49.5 26.5q-18 18 -28.5 38t-12.5 42q0 1 -0.5 2t-0.5 2v1v2v4v4v0.5v1.5v0.5v1.5q0 17 4.5 33.5t11.5 31.5q8 15 17 26t19 17q3 2 6 3.5t6 3.5q1 0 2 0.5t2 1.5l4 2l4 2q3 2 6.5 3t6.5 3
q3 1 6.5 2.5t6.5 2.5q6 2 12.5 4t12.5 4t12.5 4t12.5 4q12 3 23.5 6.5t21.5 7.5q13 4 24 8.5t19 8.5q9 5 13 11.5t4 14.5v0.5v1.5v1v2v0v1h-1v0v0.5v1.5v0v1v0v0v0.5v1.5q-1 1 -1.5 2t-2.5 2q0 1 -1.5 2t-2.5 2l-0.5 1t-1.5 1q-4 2 -8.5 4.5t-11.5 4.5q-6 2 -14 3t-17 1
q-13 0 -28 -2.5t-33 -7.5q-18 -4 -40 -13t-48 -22l12 117v0v0zM247 662l42 -101h-124l-74 101h156v0v0z" />
    <glyph glyph-name="aacute" unicode="&#xe1;" horiz-adv-x="451" 
d="M61 437q28 8 54 13.5t49 9.5t43.5 6t39.5 2q44 0 77 -9t53 -27t31 -39t12 -44v-347h-149v202q-5 -4 -10.5 -7.5t-10.5 -6.5t-11 -5l-12 -4q-1 0 -2 -0.5l-1 -0.5q-1 -1 -2 -1.5t-2 -0.5q-2 -1 -3.5 -1.5t-3.5 -0.5q-10 -4 -18 -7.5t-16 -7.5q-7 -4 -12 -9.5t-8 -13.5
q-1 -1 -1 -1.5v-1.5v-1.5v-0.5q-1 -1 -1 -1.5v-1.5v-1.5v-0.5q-1 -1 -1 -1.5v-1.5v-2v-1q0 -7 2.5 -13t9.5 -12q5 -6 13.5 -8.5t18.5 -2.5h6t7 1t7.5 2t7.5 2v0l1 1h0.5h0.5h0.5t1.5 1h0.5h0.5h2t2 1h0.5h0.5v0v1h0.5h1.5l-18 -100q-2 1 -4 1h-4t-3.5 -0.5t-2.5 -0.5
t-1.5 -0.5t-1.5 -0.5h-5.5t-4.5 -1h-4.5h-5.5h-5t-5 -1h-4h-4q-42 0 -72.5 8.5t-49.5 26.5q-18 18 -28.5 38t-12.5 42q0 1 -0.5 2t-0.5 2v1v2v4v4v0.5v1.5v0.5v1.5q0 17 4.5 33.5t11.5 31.5q8 15 17 26t19 17q3 2 6 3.5t6 3.5q1 0 2 0.5t2 1.5l4 2l4 2q3 2 6.5 3t6.5 3
q3 1 6.5 2.5t6.5 2.5q6 2 12.5 4t12.5 4t12.5 4t12.5 4q12 3 23.5 6.5t21.5 7.5q13 4 24 8.5t19 8.5q9 5 13 11.5t4 14.5v0.5v1.5v1v2v0v1h-1v0v0.5v1.5v0v1v0v0v0.5v1.5q-1 1 -1.5 2t-2.5 2q0 1 -1.5 2t-2.5 2l-0.5 1t-1.5 1q-4 2 -8.5 4.5t-11.5 4.5q-6 2 -14 3t-17 1
q-13 0 -28 -2.5t-33 -7.5q-18 -4 -40 -13t-48 -22l12 117v0v0zM179 655h160l-80 -101h-124l44 101v0v0z" />
    <glyph glyph-name="acircumflex" unicode="&#xe2;" horiz-adv-x="451" 
d="M61 437q28 8 54 13.5t49 9.5t43.5 6t39.5 2q44 0 77 -9t53 -27t31 -39t12 -44v-347h-149v202q-5 -4 -10.5 -7.5t-10.5 -6.5t-11 -5l-12 -4q-1 0 -2 -0.5l-1 -0.5q-1 -1 -2 -1.5t-2 -0.5q-2 -1 -3.5 -1.5t-3.5 -0.5q-10 -4 -18 -7.5t-16 -7.5q-7 -4 -12 -9.5t-8 -13.5
q-1 -1 -1 -1.5v-1.5v-1.5v-0.5q-1 -1 -1 -1.5v-1.5v-1.5v-0.5q-1 -1 -1 -1.5v-1.5v-2v-1q0 -7 2.5 -13t9.5 -12q5 -6 13.5 -8.5t18.5 -2.5h6t7 1t7.5 2t7.5 2v0l1 1h0.5h0.5h0.5t1.5 1h0.5h0.5h2t2 1h0.5h0.5v0v1h0.5h1.5l-18 -100q-2 1 -4 1h-4t-3.5 -0.5t-2.5 -0.5
t-1.5 -0.5t-1.5 -0.5h-5.5t-4.5 -1h-4.5h-5.5h-5t-5 -1h-4h-4q-42 0 -72.5 8.5t-49.5 26.5q-18 18 -28.5 38t-12.5 42q0 1 -0.5 2t-0.5 2v1v2v4v4v0.5v1.5v0.5v1.5q0 17 4.5 33.5t11.5 31.5q8 15 17 26t19 17q3 2 6 3.5t6 3.5q1 0 2 0.5t2 1.5l4 2l4 2q3 2 6.5 3t6.5 3
q3 1 6.5 2.5t6.5 2.5q6 2 12.5 4t12.5 4t12.5 4t12.5 4q12 3 23.5 6.5t21.5 7.5q13 4 24 8.5t19 8.5q9 5 13 11.5t4 14.5v0.5v1.5v1v2v0v1h-1v0v0.5v1.5v0v1v0v0v0.5v1.5q-1 1 -1.5 2t-2.5 2q0 1 -1.5 2t-2.5 2l-0.5 1t-1.5 1q-4 2 -8.5 4.5t-11.5 4.5q-6 2 -14 3t-17 1
q-13 0 -28 -2.5t-33 -7.5q-18 -4 -40 -13t-48 -22l12 117v0v0zM129 662h160l44 -108h-93l-31 43l-30 -43h-94l44 108v0v0z" />
    <glyph glyph-name="atilde" unicode="&#xe3;" horiz-adv-x="451" 
d="M61 437q28 8 54 13.5t49 9.5t43.5 6t39.5 2q44 0 77 -9t53 -27t31 -39t12 -44v-347h-149v202q-5 -4 -10.5 -7.5t-10.5 -6.5t-11 -5l-12 -4q-1 0 -2 -0.5l-1 -0.5q-1 -1 -2 -1.5t-2 -0.5q-2 -1 -3.5 -1.5t-3.5 -0.5q-10 -4 -18 -7.5t-16 -7.5q-7 -4 -12 -9.5t-8 -13.5
q-1 -1 -1 -1.5v-1.5v-1.5v-0.5q-1 -1 -1 -1.5v-1.5v-1.5v-0.5q-1 -1 -1 -1.5v-1.5v-2v-1q0 -7 2.5 -13t9.5 -12q5 -6 13.5 -8.5t18.5 -2.5h6t7 1t7.5 2t7.5 2v0l1 1h0.5h0.5h0.5t1.5 1h0.5h0.5h2t2 1h0.5h0.5v0v1h0.5h1.5l-18 -100q-2 1 -4 1h-4t-3.5 -0.5t-2.5 -0.5
t-1.5 -0.5t-1.5 -0.5h-5.5t-4.5 -1h-4.5h-5.5h-5t-5 -1h-4h-4q-42 0 -72.5 8.5t-49.5 26.5q-18 18 -28.5 38t-12.5 42q0 1 -0.5 2t-0.5 2v1v2v4v4v0.5v1.5v0.5v1.5q0 17 4.5 33.5t11.5 31.5q8 15 17 26t19 17q3 2 6 3.5t6 3.5q1 0 2 0.5t2 1.5l4 2l4 2q3 2 6.5 3t6.5 3
q3 1 6.5 2.5t6.5 2.5q6 2 12.5 4t12.5 4t12.5 4t12.5 4q12 3 23.5 6.5t21.5 7.5q13 4 24 8.5t19 8.5q9 5 13 11.5t4 14.5v0.5v1.5v1v2v0v1h-1v0v0.5v1.5v0v1v0v0v0.5v1.5q-1 1 -1.5 2t-2.5 2q0 1 -1.5 2t-2.5 2l-0.5 1t-1.5 1q-4 2 -8.5 4.5t-11.5 4.5q-6 2 -14 3t-17 1
q-13 0 -28 -2.5t-33 -7.5q-18 -4 -40 -13t-48 -22l12 117v0v0zM104 561v0.5v1.5q-1 1 -1 1.5v1.5v2v2v1v2v2v2q-1 0 -1 1v2v3.5v2.5q0 25 4 42t13 26q8 9 17.5 13.5t19.5 4.5h2.5h2.5q1 -1 2.5 -1h2.5q3 -1 5.5 -1.5t4.5 -0.5q3 -1 5.5 -2t4.5 -1q2 -1 4.5 -2t5.5 -2
q5 -2 9 -4.5t8 -4.5l1.5 -1.5t1.5 -0.5q0 -1 0.5 -1.5t1.5 -0.5q2 -1 2.5 -1.5t1.5 -0.5l1.5 -1.5t1.5 -0.5q1 -1 2 -1.5t2 -1.5l1.5 -1.5t1.5 -0.5q1 -1 2 -1.5t2 -1.5q0 -1 0.5 -1.5t1.5 -0.5v0v0q4 -3 7 -6t6 -5q1 -1 2 -1.5t2 -0.5q2 -1 4.5 -1.5t3.5 -0.5h1.5h1.5
t2 0.5t2 1.5q2 2 4 5.5t4 7.5q2 5 3.5 11.5t1.5 14.5l62 1v-28q0 -27 -4.5 -45.5t-12.5 -27.5q-9 -10 -18.5 -14.5t-20.5 -4.5h-0.5h-1.5h-2h-1q-3 0 -6 0.5t-6 1.5l-3 1.5t-3 0.5l-8 4l-8 4q-1 0 -2 1t-3 2q-1 0 -1.5 0.5t-0.5 1.5q-1 0 -1.5 0.5t-1.5 0.5q-1 1 -2.5 2
t-3.5 2l-1.5 1.5l-1.5 1.5q-1 0 -1.5 0.5l-1.5 1.5q-1 0 -2 0.5t-1 1.5q-1 0 -2 0.5t-2 1.5q0 1 -1 1t-1 1l-2 2l-2 2l-4 2l-4 2q-3 1 -5 2l-4 2q-4 2 -7.5 3t-5.5 1h-1.5h-0.5v0v0h-1v0q-1 -1 -2.5 -2t-2.5 -2q-2 -1 -3 -2l-3 -3q-2 -4 -4 -9t-2 -13l-61 1v0v0z" />
    <glyph glyph-name="adieresis" unicode="&#xe4;" horiz-adv-x="451" 
d="M61 437q28 8 54 13.5t49 9.5t43.5 6t39.5 2q44 0 77 -9t53 -27t31 -39t12 -44v-347h-149v202q-5 -4 -10.5 -7.5t-10.5 -6.5t-11 -5l-12 -4q-1 0 -2 -0.5l-1 -0.5q-1 -1 -2 -1.5t-2 -0.5q-2 -1 -3.5 -1.5t-3.5 -0.5q-10 -4 -18 -7.5t-16 -7.5q-7 -4 -12 -9.5t-8 -13.5
q-1 -1 -1 -1.5v-1.5v-1.5v-0.5q-1 -1 -1 -1.5v-1.5v-1.5v-0.5q-1 -1 -1 -1.5v-1.5v-2v-1q0 -7 2.5 -13t9.5 -12q5 -6 13.5 -8.5t18.5 -2.5h6t7 1t7.5 2t7.5 2v0l1 1h0.5h0.5h0.5t1.5 1h0.5h0.5h2t2 1h0.5h0.5v0v1h0.5h1.5l-18 -100q-2 1 -4 1h-4t-3.5 -0.5t-2.5 -0.5
t-1.5 -0.5t-1.5 -0.5h-5.5t-4.5 -1h-4.5h-5.5h-5t-5 -1h-4h-4q-42 0 -72.5 8.5t-49.5 26.5q-18 18 -28.5 38t-12.5 42q0 1 -0.5 2t-0.5 2v1v2v4v4v0.5v1.5v0.5v1.5q0 17 4.5 33.5t11.5 31.5q8 15 17 26t19 17q3 2 6 3.5t6 3.5q1 0 2 0.5t2 1.5l4 2l4 2q3 2 6.5 3t6.5 3
q3 1 6.5 2.5t6.5 2.5q6 2 12.5 4t12.5 4t12.5 4t12.5 4q12 3 23.5 6.5t21.5 7.5q13 4 24 8.5t19 8.5q9 5 13 11.5t4 14.5v0.5v1.5v1v2v0v1h-1v0v0.5v1.5v0v1v0v0v0.5v1.5q-1 1 -1.5 2t-2.5 2q0 1 -1.5 2t-2.5 2l-0.5 1t-1.5 1q-4 2 -8.5 4.5t-11.5 4.5q-6 2 -14 3t-17 1
q-13 0 -28 -2.5t-33 -7.5q-18 -4 -40 -13t-48 -22l12 117v0v0zM98 655h106v-94h-106v94v0v0zM247 655h104v-94h-104v94v0v0z" />
    <glyph glyph-name="aring" unicode="&#xe5;" horiz-adv-x="451" 
d="M61 437q28 8 54 13.5t49 9.5t43.5 6t39.5 2q44 0 77 -9t53 -27t31 -39t12 -44v-347h-149v202q-5 -4 -10.5 -7.5t-10.5 -6.5t-11 -5l-12 -4q-1 0 -2 -0.5l-1 -0.5q-1 -1 -2 -1.5t-2 -0.5q-2 -1 -3.5 -1.5t-3.5 -0.5q-10 -4 -18 -7.5t-16 -7.5q-7 -4 -12 -9.5t-8 -13.5
q-1 -1 -1 -1.5v-1.5v-1.5v-0.5q-1 -1 -1 -1.5v-1.5v-1.5v-0.5q-1 -1 -1 -1.5v-1.5v-2v-1q0 -7 2.5 -13t9.5 -12q5 -6 13.5 -8.5t18.5 -2.5h6t7 1t7.5 2t7.5 2v0l1 1h0.5h0.5h0.5t1.5 1h0.5h0.5h2t2 1h0.5h0.5v0v1h0.5h1.5l-18 -100q-2 1 -4 1h-4t-3.5 -0.5t-2.5 -0.5
t-1.5 -0.5t-1.5 -0.5h-5.5t-4.5 -1h-4.5h-5.5h-5t-5 -1h-4h-4q-42 0 -72.5 8.5t-49.5 26.5q-18 18 -28.5 38t-12.5 42q0 1 -0.5 2t-0.5 2v1v2v4v4v0.5v1.5v0.5v1.5q0 17 4.5 33.5t11.5 31.5q8 15 17 26t19 17q3 2 6 3.5t6 3.5q1 0 2 0.5t2 1.5l4 2l4 2q3 2 6.5 3t6.5 3
q3 1 6.5 2.5t6.5 2.5q6 2 12.5 4t12.5 4t12.5 4t12.5 4q12 3 23.5 6.5t21.5 7.5q13 4 24 8.5t19 8.5q9 5 13 11.5t4 14.5v0.5v1.5v1v2v0v1h-1v0v0.5v1.5v0v1v0v0v0.5v1.5q-1 1 -1.5 2t-2.5 2q0 1 -1.5 2t-2.5 2l-0.5 1t-1.5 1q-4 2 -8.5 4.5t-11.5 4.5q-6 2 -14 3t-17 1
q-13 0 -28 -2.5t-33 -7.5q-18 -4 -40 -13t-48 -22l12 117v0v0zM228 700q20 -1 35 -7t26 -18q12 -12 19 -25t10 -27v-2t1 -2v-3v-2v-2.5t1 -2.5v-3v-2q0 -16 -5.5 -31t-16.5 -29q-11 -13 -27.5 -20t-36.5 -7q-22 0 -39.5 7t-30.5 20q-12 14 -18 28.5t-7 30.5v1.5v1.5v1.5v1.5
v1.5v1.5v0.5v1.5v1.5v1.5l0.5 0.5t0.5 1.5q1 15 7.5 28.5t17.5 26.5q11 12 27 18.5t36 6.5v1v0zM228 641q-8 -3 -14 -6.5t-9 -8.5q-2 -2 -3.5 -4t-1.5 -4q-1 -3 -1.5 -5t-0.5 -4v-1.5v-1.5v-1.5v-0.5q2 -5 4.5 -9.5t6.5 -9.5q4 -4 7.5 -6.5t7.5 -2.5q0 -1 0.5 -1h1.5h0.5
h1.5v0h1v-1v0h0.5h1.5v0h1v-1v0v0v0q7 0 12 2.5t9 7.5t5.5 10.5t1.5 11.5v0v1v0v0v0.5v1.5q0 6 -2 11.5t-6 10.5t-10 7.5t-14 2.5v1v0z" />
    <glyph glyph-name="ae" unicode="&#xe6;" horiz-adv-x="691" 
d="M354 430q10 10 21.5 18t24.5 14q9 4 18 6.5t18 4.5q4 1 9 2t9 1h2t2 1h1h2h3.5h3.5h2.5h3.5q0 -1 0.5 -1h1.5h2h2h3.5h2.5q2 -1 3.5 -1h3.5q32 -5 62 -22t57 -46t41 -68t14 -87v-4v-3q-1 -2 -1 -4v-4v-4v-3q-1 -2 -1 -3.5v-3.5v-1.5v-0.5v-1.5v-0.5v-2v-2q-1 -1 -1 -2v-2
v-4v-4l-272 1q2 -27 11 -45t24 -29q15 -10 33 -15.5t38 -5.5h11t12 1l12 2l12 2q3 0 6.5 0.5t6.5 1.5t6 1.5t6 1.5q6 2 12 3.5t13 3.5q6 2 12 3.5t11 2.5q6 2 11.5 3.5t10.5 2.5l-19 -122q-2 -1 -3.5 -1.5t-2.5 -1.5h-1.5h-1.5q-2 0 -3.5 -0.5t-2.5 -1.5h-1.5h-1.5
q-11 -3 -23 -5t-26 -4q-13 -1 -26.5 -2t-27.5 -2h-2.5t-2.5 -1h-2.5h-2.5h-2.5h-2.5h-2.5h-2.5h-2.5h-2.5h-2h-3h-4.5h-4.5q-35 2 -67.5 12.5t-63.5 31.5t-51 59.5t-30 95.5q-2 -1 -4.5 -2.5t-5.5 -3.5q-1 -1 -2.5 -1.5t-2.5 -1.5t-2.5 -1.5t-2.5 -1.5q-5 -2 -9.5 -4
t-9.5 -4q-4 -2 -8.5 -3.5t-9.5 -3.5q-8 -4 -15.5 -7.5t-12.5 -7.5q-6 -4 -9 -9.5t-5 -13.5v-1.5v-0.5v0v0l-1 -1v0v0v0v-1v0v0v0v-0.5v-0.5l-1 -1v0v-1v0q0 -7 3.5 -13t10.5 -11q6 -4 14 -6.5t18 -2.5q4 0 8 0.5t9 1.5t10 2.5t10 2.5q1 0 2 0.5t2 0.5l1 0.5l1 0.5q1 0 2 0.5
t2 0.5l1 0.5l1 0.5l-18 -100q-1 -1 -2.5 -1.5t-3.5 -0.5h-2.5h-2.5q-8 0 -16.5 -0.5t-16.5 -1.5t-15.5 -1.5t-13.5 -0.5q-40 0 -69.5 9.5t-47.5 28.5q-18 20 -26.5 42.5t-8.5 48.5v4v4v4.5v5.5v2t1 2v2v2q0 2 0.5 4.5t1.5 4.5q5 26 16.5 44.5t30.5 30.5q17 12 37 21t41 16
q2 1 4 1.5t4 0.5l8 2l8 2q3 1 5.5 2t5.5 2q3 0 6 1l6 2q17 5 30.5 9.5t26.5 10.5q11 6 17 15t6 22v8q0 6 -3.5 10.5t-8.5 7.5q-7 2 -13.5 3.5t-14.5 1.5t-17.5 -1t-20.5 -3l-10 -2t-10 -3q-6 -1 -11 -2t-10 -3q-4 -1 -7 -1.5t-6 -1.5q-1 0 -2 -0.5t-2 -1.5q-2 0 -4 -0.5
t-4 -0.5q-10 -3 -19 -6t-17 -5q-9 -2 -16 -3.5t-14 -3.5l13 116q29 7 54 12t46 9q22 3 40.5 5t33.5 2q25 0 44 -3.5t32 -9.5q13 -7 23 -13.5t16 -14.5q0 -1 0.5 -1.5t1.5 -0.5q0 -1 0.5 -1.5l1.5 -1.5q0 -1 1 -2l2 -2v1v0zM392 292h129v0v1q-1 0 -1 0.5v1.5v0.5v1.5
q-1 0 -1 0.5v1.5q-2 5 -3.5 9.5t-2.5 9.5q-1 2 -1.5 4.5t-1.5 4.5l-6 12t-7 10h-0.5t-0.5 1h-1.5h-0.5h-0.5t-0.5 1v0v0q-2 1 -3.5 1.5t-2.5 0.5l-1.5 1.5t-1.5 0.5l-4 2l-4 2q-4 1 -7 1.5t-5 1.5q-1 0 -2.5 0.5t-2.5 0.5q-2 1 -3 1h-3h-2h-1q-1 -1 -2 -1h-2q-2 0 -3.5 -0.5
t-3.5 -1.5q-8 -3 -15.5 -8.5t-14.5 -13.5q-7 -9 -11 -21t-6 -27v1v0z" />
    <glyph glyph-name="ccedilla" unicode="&#xe7;" horiz-adv-x="376" 
d="M142 -42h130l-48 -122h-162l80 122v0v0zM346 314q-15 7 -29 12t-27 8t-24.5 4.5t-22.5 1.5q-25 0 -43.5 -8t-30.5 -25q-13 -16 -19 -34t-6 -38v-1.5v-0.5v0v0v-1v0q0 -21 7.5 -40.5t21.5 -36.5q14 -18 34 -26.5t45 -8.5h0.5h1.5h0.5h0.5h0.5h0.5h0.5h1.5h1.5h0.5
q9 1 19.5 3.5t21.5 6.5t22.5 9.5t22.5 12.5l-18 -143q-8 -4 -16.5 -6.5t-16.5 -3.5q-9 -2 -17.5 -4t-16.5 -3q-5 -1 -11 -1.5t-12 -1.5h-5.5t-5.5 -1h-5.5h-5.5q-41 0 -78 14t-70 43q-34 29 -50.5 78t-16.5 118q0 48 12 89.5t34 75.5q23 35 63 52.5t98 17.5q14 0 28 -1.5
t30 -3.5q17 -2 34 -5.5t34 -8.5l12 -143v0v0z" />
    <glyph glyph-name="egrave" unicode="&#xe8;" horiz-adv-x="459" 
d="M228 475q52 -1 90 -18t63 -50q24 -33 36.5 -70.5t12.5 -79.5v-13.5t-1 -13.5t-1.5 -13.5t-1.5 -13.5l-279 1q5 -24 16 -42.5t26 -31.5t34.5 -19t42.5 -6q14 0 29 2.5t31 6.5q17 5 34 11t36 13l-13 -129q-19 -6 -38 -10t-37 -7t-34.5 -5t-31.5 -2q-61 0 -106 18.5
t-75 56.5q-31 38 -46 79.5t-15 87.5v0v1v0v0v0.5v1.5v0.5v1.5v2v2q0 44 14.5 85t42.5 78q29 38 70 56.5t95 18.5l6 1v0v0zM283 292q0 21 -4.5 36.5t-15.5 24.5q-10 9 -21.5 13.5t-25.5 4.5q-12 0 -22.5 -5t-20.5 -16q-10 -10 -15 -25t-5 -34l130 1v0v0zM253 648l42 -101
h-124l-73 101h155v0v0z" />
    <glyph glyph-name="eacute" unicode="&#xe9;" horiz-adv-x="459" 
d="M234 475q52 -1 90 -18t63 -50q24 -33 36.5 -70.5t12.5 -79.5v-13.5v-13.5q-1 -7 -1.5 -13.5t-2.5 -13.5l-279 1q6 -24 16.5 -42.5t25.5 -31.5t34.5 -19t42.5 -6q14 0 29 2.5t31 6.5q17 5 34 11t36 13l-13 -129q-20 -6 -38.5 -10t-36.5 -7t-34.5 -5t-31.5 -2
q-61 0 -106 18.5t-76 56.5t-46.5 79.5t-15.5 87.5v0v1v0v0v0.5v1.5v0.5v1.5v2v2q1 44 15.5 85t42.5 78q29 38 70.5 56.5t95.5 18.5l6 1v0v0zM289 292q0 21 -4.5 36.5t-15.5 24.5q-10 9 -21.5 13.5t-25.5 4.5h-0.5h-0.5h-0.5h-0.5h-1.5h-0.5q-11 -1 -21.5 -6.5t-19.5 -16.5
q-9 -10 -13.5 -24.5t-4.5 -32.5l130 1v0v0zM185 648h160l-80 -101h-124l44 101v0v0z" />
    <glyph glyph-name="ecircumflex" unicode="&#xea;" horiz-adv-x="459" 
d="M232 468q51 -1 89.5 -18t63.5 -50q24 -33 36.5 -70.5t12.5 -79.5q0 -7 -0.5 -13.5t-1.5 -13.5t-1.5 -13.5t-1.5 -13.5l-279 1q6 -24 16.5 -42.5t25.5 -31.5q16 -13 35 -19t43 -6q13 0 27.5 2.5t30.5 6.5q17 5 34.5 11t35.5 13l-12 -129q-19 -5 -38 -9.5t-37 -7.5
q-17 -3 -33.5 -5t-32.5 -2q-61 0 -106.5 18.5t-76.5 56.5q-30 38 -45.5 79.5t-15.5 87.5v0v1v0v0v0.5v1.5v0.5v1.5v2v2q1 44 16 85t43 78q29 38 70 56.5t95 18.5l7 1v0v0zM287 285q0 21 -5 36.5t-16 24.5q-10 9 -21.5 13.5t-25.5 4.5h-1.5h-1.5h-1v0q-12 -1 -22 -6.5
t-19 -16.5q-9 -10 -13.5 -24.5t-4.5 -32.5l131 1v0v0zM125 655h162l42 -108h-91l-31 43l-31 -43h-94l43 108v0v0z" />
    <glyph glyph-name="edieresis" unicode="&#xeb;" horiz-adv-x="459" 
d="M228 475q52 -1 90 -18t63 -50q24 -33 36.5 -70.5t12.5 -79.5v-13.5t-1 -13.5t-1.5 -13.5t-1.5 -13.5l-279 1q5 -24 16 -42.5t26 -31.5t34.5 -19t42.5 -6q14 0 29 2.5t31 6.5q17 5 34 11t36 13l-13 -129q-19 -6 -38 -10t-37 -7t-34.5 -5t-31.5 -2q-61 0 -106 18.5
t-75 56.5q-31 38 -46 79.5t-15 87.5v0v1v0v0v0.5v1.5v0.5v1.5v2v2q0 44 14.5 85t42.5 78q29 38 70 56.5t95 18.5l6 1v0v0zM283 292q0 21 -4.5 36.5t-15.5 24.5q-10 9 -21.5 13.5t-25.5 4.5q-12 0 -22.5 -5t-20.5 -16q-10 -10 -15 -25t-5 -34l130 1v0v0zM104 648h105v-94
h-105v94v0v0zM253 648h104v-94h-104v94v0v0z" />
    <glyph glyph-name="igrave" unicode="&#xec;" horiz-adv-x="237" 
d="M59 468h149v-466h-149v466v0v0zM158 655l42 -101h-122l-74 101h154v0v0z" />
    <glyph glyph-name="iacute" unicode="&#xed;" horiz-adv-x="237" 
d="M11 468h148v-466h-148v466v0v0zM47 648h161l-81 -101h-123l43 101v0v0z" />
    <glyph glyph-name="icircumflex" unicode="&#xee;" horiz-adv-x="279" 
d="M68 468h149v-466h-149v466v0v0zM51 648h158l46 -108h-94l-31 43l-31 -43h-92l44 108v0v0z" />
    <glyph glyph-name="idieresis" unicode="&#xef;" horiz-adv-x="287" 
d="M51 468h149v-466h-149v466v0v0zM3 648h104v-94h-104v94v0v0zM150 648h105v-94h-105v94v0v0z" />
    <glyph glyph-name="eth" unicode="&#xf0;" horiz-adv-x="40" 
 />
    <glyph glyph-name="ntilde" unicode="&#xf1;" horiz-adv-x="483" 
d="M142 394q8 15 22.5 28.5t33.5 24.5q20 11 41 18.5t43 11.5h4t4 1h3h4h4t4 1h3h4q26 0 50 -8t46 -24q21 -16 32 -42t12 -63v-340h-149v240q0 21 -5 37t-15 28q-9 11 -19.5 17t-21.5 7h-1.5h-0.5v0v0h-1v0h-2h-1q-1 -1 -2 -1h-2h-1.5h-1.5q-1 -1 -1.5 -1h-1.5
q-13 -3 -24.5 -12t-21.5 -24q-11 -15 -16.5 -35.5t-7.5 -47.5v-208h-149v456h135v-64v0v0zM99 561v2.5v2.5v2v2v1v2t-0.5 2t-0.5 2v1v2v3.5v2.5q0 25 4 42t12 26t17.5 13.5t20.5 4.5h2h2q1 -1 2 -1h2q3 0 5.5 -0.5t4.5 -1.5q3 -1 5.5 -1.5t4.5 -1.5t4.5 -2t5.5 -2
q5 -2 9.5 -4.5t8.5 -4.5q1 -1 2.5 -2t2.5 -2q1 0 1.5 -0.5l0.5 -0.5q0 -1 0.5 -1h1.5q2 -1 2.5 -1.5l1.5 -1.5q1 0 1.5 -0.5t1.5 -0.5q0 -1 0.5 -1h1.5l2 -2l2 -2l1.5 -1.5l0.5 -0.5q0 -1 0.5 -1h1.5q2 -1 3.5 -2.5l3.5 -3.5q1 -1 3 -2.5t3 -2.5q3 -2 6 -3t6 -1h0.5h0.5h0.5
h1.5t2 0.5t2 1.5q2 2 4 5.5t4 7.5q2 5 3 11.5t2 14.5l61 1v-30q0 -23 -3.5 -39.5t-10.5 -26.5t-15 -15.5t-17 -7.5q-1 -1 -1.5 -1h-2.5h-2h-3h-1.5h-0.5h-2h-1q-5 0 -9.5 1.5t-8.5 2.5l-8 4l-8 4h-1.5t-0.5 1q-1 0 -1.5 0.5l-1.5 1.5q-1 0 -1.5 0.5t-0.5 1.5q-1 0 -1.5 0.5
t-1.5 0.5q-1 1 -2.5 2t-3.5 2l-1.5 1.5l-1.5 1.5q-1 0 -1.5 0.5l-1.5 1.5t-2.5 2t-3.5 2q-1 1 -2.5 2t-3.5 2q-4 3 -8.5 5.5t-8.5 4.5t-8 3t-6 1q-4 0 -7 -2t-5 -5q-3 -4 -4.5 -10t-2.5 -14l-63 1v0v0z" />
    <glyph glyph-name="ograve" unicode="&#xf2;" horiz-adv-x="500" 
d="M240 475q58 -3 101.5 -23.5t71.5 -58.5q28 -37 42 -79t14 -89q0 -43 -15 -83t-44 -76t-71.5 -53t-98.5 -17q-57 0 -101 18t-74 55t-45 77.5t-15 85.5v4v4v4t1 5q3 41 19 79.5t45 73.5t72 53t98 19v1v0zM240 343q-23 -1 -41 -10.5t-29 -27.5q-12 -18 -17.5 -38t-5.5 -42
v-5.5v-4.5v-5.5t1 -4.5q3 -16 9.5 -30t16.5 -27t24 -19.5t32 -6.5h0.5h1.5v0l1 1h0.5h1.5h1.5h1.5v0l1 1h0.5h0.5q20 0 35 8.5t25 25.5t15 35.5t5 38.5v1.5v1.5v0.5v1.5v3.5v2.5q-1 18 -6.5 34.5t-15.5 32.5q-10 15 -24 23t-34 9v1v0zM259 655l43 -101h-125l-73 101h155v0v0
z" />
    <glyph glyph-name="oacute" unicode="&#xf3;" horiz-adv-x="500" 
d="M240 475q58 -3 101.5 -23.5t71.5 -58.5q28 -37 42 -79t14 -89q0 -43 -15 -83t-44 -76t-71.5 -53t-98.5 -17q-57 0 -101 18t-74 55t-45 77.5t-15 85.5v4v4v4t1 5q3 41 19 79.5t45 73.5t72 53t98 19v1v0zM240 343q-23 -1 -41 -10.5t-29 -27.5q-12 -18 -17.5 -38t-5.5 -42
v-5.5v-4.5v-5.5t1 -4.5q3 -16 9.5 -30t16.5 -27t24 -19.5t32 -6.5h0.5h1.5v0l1 1h0.5h1.5h1.5h1.5v0l1 1h0.5h0.5q20 0 35 8.5t25 25.5t15 35.5t5 38.5v1.5v1.5v0.5v1.5v3.5v2.5q-1 18 -6.5 34.5t-15.5 32.5q-10 15 -24 23t-34 9v1v0zM204 655h159l-80 -101h-124l45 101v0v0
z" />
    <glyph glyph-name="ocircumflex" unicode="&#xf4;" horiz-adv-x="500" 
d="M240 475q58 -3 101.5 -23.5t71.5 -58.5q28 -37 42 -79t14 -89q0 -43 -15 -83t-44 -76t-71.5 -53t-98.5 -17q-57 0 -101 18t-74 55t-45 77.5t-15 85.5v4v4v4t1 5q3 41 19 79.5t45 73.5t72 53t98 19v1v0zM240 343q-23 -1 -41 -10.5t-29 -27.5q-12 -18 -17.5 -38t-5.5 -42
v-5.5v-4.5v-5.5t1 -4.5q3 -16 9.5 -30t16.5 -27t24 -19.5t32 -6.5h0.5h1.5v0l1 1h0.5h1.5h1.5h1.5v0l1 1h0.5h0.5q20 0 35 8.5t25 25.5t15 35.5t5 38.5v1.5v1.5v0.5v1.5v3.5v2.5q-1 18 -6.5 34.5t-15.5 32.5q-10 15 -24 23t-34 9v1v0zM141 655h161l43 -108h-92l-31 43
l-30 -43h-94l43 108v0v0z" />
    <glyph glyph-name="otilde" unicode="&#xf5;" horiz-adv-x="500" 
d="M240 475q58 -3 101.5 -23.5t71.5 -58.5q28 -37 42 -79t14 -89q0 -43 -15 -83t-44 -76t-71.5 -53t-98.5 -17q-57 0 -101 18t-74 55t-45 77.5t-15 85.5v4v4v4t1 5q3 41 19 79.5t45 73.5t72 53t98 19v1v0zM240 343q-23 -1 -41 -10.5t-29 -27.5q-12 -18 -17.5 -38t-5.5 -42
v-5.5v-4.5v-5.5t1 -4.5q3 -16 9.5 -30t16.5 -27t24 -19.5t32 -6.5h0.5h1.5v0l1 1h0.5h1.5h1.5h1.5v0l1 1h0.5h0.5q20 0 35 8.5t25 25.5t15 35.5t5 38.5v1.5v1.5v0.5v1.5v3.5v2.5q-1 18 -6.5 34.5t-15.5 32.5q-10 15 -24 23t-34 9v1v0zM122 561v2.5v2.5v2v2v1v2t-0.5 2
t-0.5 2v1v2v3.5v2.5q0 25 4 42t12 26t17.5 13.5t20.5 4.5h2h2q1 -1 2 -1h2q3 0 5.5 -0.5t4.5 -1.5q3 -1 5.5 -1.5t4.5 -1.5t4.5 -2t5.5 -2q5 -2 9.5 -4.5t8.5 -4.5q1 -1 2.5 -2t2.5 -2q1 0 1.5 -0.5l0.5 -0.5q0 -1 0.5 -1h1.5q2 -1 2.5 -1.5l1.5 -1.5q1 0 1.5 -0.5t1.5 -0.5
q0 -1 0.5 -1h1.5l2 -2l2 -2l1.5 -1.5l0.5 -0.5q0 -1 0.5 -1h1.5q2 -1 3.5 -2.5l3.5 -3.5q1 -1 3 -2.5t3 -2.5q3 -2 6 -3t6 -1h0.5h0.5h0.5h1.5t2 0.5t2 1.5q2 2 4 5.5t4 7.5q2 5 3 11.5t2 14.5l61 1v-28q0 -27 -4.5 -45t-12.5 -27q-8 -10 -17 -15t-18 -5h-1.5h-0.5v0v0h-1v0
h-1.5h-0.5h-2h-1q-5 0 -9.5 1.5t-8.5 2.5l-8 4l-8 4h-1.5t-0.5 1q-1 0 -1.5 0.5l-1.5 1.5t-2.5 1.5t-2.5 1.5t-2.5 2t-3.5 2l-1.5 1.5l-1.5 1.5q-1 0 -1.5 0.5l-1.5 1.5t-2.5 2t-3.5 2q-1 1 -2.5 2t-3.5 2q-4 3 -8.5 5.5t-8.5 4.5t-8 3t-6 1q-4 0 -7 -2t-5 -5
q-3 -4 -4.5 -10t-2.5 -14l-63 1v0v0z" />
    <glyph glyph-name="odieresis" unicode="&#xf6;" horiz-adv-x="500" 
d="M240 475q58 -3 101.5 -23.5t71.5 -58.5q28 -37 42 -79t14 -89q0 -43 -15 -83t-44 -76t-71.5 -53t-98.5 -17q-57 0 -101 18t-74 55t-45 77.5t-15 85.5v4v4v4t1 5q3 41 19 79.5t45 73.5t72 53t98 19v1v0zM240 343q-23 -1 -41 -10.5t-29 -27.5q-12 -18 -17.5 -38t-5.5 -42
v-5.5v-4.5v-5.5t1 -4.5q3 -16 9.5 -30t16.5 -27t24 -19.5t32 -6.5h0.5h1.5v0l1 1h0.5h1.5h1.5h1.5v0l1 1h0.5h0.5q20 0 35 8.5t25 25.5t15 35.5t5 38.5v1.5v1.5v0.5v1.5v3.5v2.5q-1 18 -6.5 34.5t-15.5 32.5q-10 15 -24 23t-34 9v1v0zM110 655h106v-94h-106v94v0v0zM259 655
h104v-94h-104v94v0v0z" />
    <glyph glyph-name="divide" unicode="&#xf7;" 
 />
    <glyph glyph-name="oslash" unicode="&#xf8;" horiz-adv-x="500" 
d="M289 458l19 53h130l-42 -96q17 -10 31.5 -29t25.5 -46q10 -27 15.5 -56t5.5 -59v-5.5v-4.5v-2v-2q-1 -2 -1 -3v-2q-2 -40 -16 -77.5t-40 -70.5q-25 -34 -66.5 -50t-97.5 -16h-5.5h-4.5q-3 1 -5.5 1h-5.5q-4 0 -9.5 0.5t-10.5 1.5h-2h-2q-1 1 -2 1h-2h-1h-1h-2h-2l-21 -45
h-128l42 94q-19 11 -34.5 29t-27.5 43q-11 26 -16.5 53t-5.5 55v6.5v7.5t0.5 8t1.5 8q4 38 19.5 73.5t42.5 67.5t67.5 48.5t93.5 16.5h5.5h5.5q2 -1 5 -1h6q5 -1 11 -1.5t12 -0.5h1.5h0.5h1v0q1 -1 2 -1h1h1.5h0.5h2.5h1.5v1v0zM247 343q-24 -1 -41.5 -10.5t-29.5 -27.5
q-11 -18 -17 -38t-6 -42t5.5 -40.5t16.5 -35.5q12 -16 28 -24.5t37 -8.5v0h1v0v0h0.5h1.5v-1v0h0.5h1.5q20 0 35.5 8.5t25.5 25.5t15 36t5 40v2v2v2v2q-1 20 -6.5 38.5t-14.5 35.5q-10 17 -24.5 25.5t-33.5 9.5v1v0z" />
    <glyph glyph-name="ugrave" unicode="&#xf9;" horiz-adv-x="459" 
d="M285 458h149v-456h-143v58q-10 -16 -22.5 -28.5t-27.5 -21.5t-31 -14t-33 -7h-4.5h-4.5h-2.5t-2.5 -1h-0.5h-0.5h-1.5h-1.5h-1.5h-1.5h-1.5h-1.5q-25 1 -49 9.5t-46 25.5t-35 42.5t-16 58.5v334h147v-240q0 -22 4.5 -39.5t14.5 -29.5t20.5 -18t22.5 -6h2h2h0.5h0.5h0.5
h1.5q11 2 22 9t21 20q9 13 14 31t5 40v233v0v0zM248 648l43 -101h-122l-76 101h155v0v0z" />
    <glyph glyph-name="uacute" unicode="&#xfa;" horiz-adv-x="459" 
d="M285 458h149v-456h-143v58q-10 -16 -22.5 -28.5t-27.5 -21.5t-31 -14t-33 -7h-4.5h-4.5h-2.5t-2.5 -1h-0.5h-0.5h-1.5h-1.5h-1.5h-1.5h-1.5h-1.5q-25 1 -49 9.5t-46 25.5t-35 42.5t-16 58.5v334h147v-240q0 -22 4.5 -39.5t14.5 -29.5t20.5 -18t22.5 -6h2h2h0.5h0.5h0.5
h1.5q11 2 22 9t21 20q9 13 14 31t5 40v233v0v0zM192 648h160l-80 -101h-124l44 101v0v0z" />
    <glyph glyph-name="ucircumflex" unicode="&#xfb;" horiz-adv-x="459" 
d="M285 458h149v-456h-143v58q-10 -16 -22.5 -28.5t-27.5 -21.5t-31 -14t-33 -7h-4.5h-4.5h-2.5t-2.5 -1h-0.5h-0.5h-1.5h-1.5h-1.5h-1.5h-1.5h-1.5q-25 1 -49 9.5t-46 25.5t-35 42.5t-16 58.5v334h147v-240q0 -22 4.5 -39.5t14.5 -29.5t20.5 -18t22.5 -6h2h2h0.5h0.5h0.5
h1.5q11 2 22 9t21 20q9 13 14 31t5 40v233v0v0zM124 648h161l43 -108h-92l-31 43l-30 -43h-94l43 108v0v0z" />
    <glyph glyph-name="udieresis" unicode="&#xfc;" horiz-adv-x="459" 
d="M285 458h149v-456h-143v58q-10 -16 -22.5 -28.5t-27.5 -21.5t-31 -14t-33 -7h-4.5h-4.5h-2.5t-2.5 -1h-0.5h-0.5h-1.5h-1.5h-1.5h-1.5h-1.5h-1.5q-25 1 -49 9.5t-46 25.5t-35 42.5t-16 58.5v334h147v-240q0 -22 4.5 -39.5t14.5 -29.5t20.5 -18t22.5 -6h2h2h0.5h0.5h0.5
h1.5q11 2 22 9t21 20q9 13 14 31t5 40v233v0v0zM99 641h106v-94h-106v94v0v0zM248 641h104v-94h-104v94v0v0z" />
    <glyph glyph-name="yacute" unicode="&#xfd;" 
 />
    <glyph glyph-name="thorn" unicode="&#xfe;" horiz-adv-x="40" 
 />
    <glyph glyph-name="ydieresis" unicode="&#xff;" horiz-adv-x="500" 
d="M242 139l80 319h148l-179 -557q-8 -28 -21.5 -48t-31.5 -33q-19 -13 -38.5 -21t-40.5 -11h-4.5t-4.5 -1h-4h-4h-4.5t-4.5 -1h-4h-4q-13 0 -26 1.5t-26 3.5t-23 4.5t-18 5.5l-19 129q5 -2 10.5 -4.5t12.5 -4.5t13.5 -4t13.5 -3h5.5h4.5h3t3 -1h2.5h2.5h2h2h1.5h0.5h0.5
h1.5q14 1 27 6t24 13t17.5 20t6.5 29v2.5v2.5q-1 2 -1 3v3q-1 3 -1.5 5.5t-0.5 4.5v0.5v1.5q-1 0 -1 0.5v0.5v1v2q-1 0 -1.5 1t-0.5 2v2v2l-154 443h154l81 -319v0v0zM118 655h106v-94h-106v94v0v0zM266 655h105v-94h-105v94v0v0z" />
    <glyph glyph-name="Abreve" unicode="&#x102;" 
 />
    <glyph glyph-name="abreve" unicode="&#x103;" 
 />
    <glyph glyph-name="Aogonek" unicode="&#x104;" 
 />
    <glyph glyph-name="aogonek" unicode="&#x105;" 
 />
    <glyph glyph-name="Cacute" unicode="&#x106;" 
 />
    <glyph glyph-name="cacute" unicode="&#x107;" 
 />
    <glyph glyph-name="Ccaron" unicode="&#x10c;" 
 />
    <glyph glyph-name="ccaron" unicode="&#x10d;" 
 />
    <glyph glyph-name="Dcaron" unicode="&#x10e;" 
 />
    <glyph glyph-name="dcaron" unicode="&#x10f;" 
 />
    <glyph glyph-name="Dslash" unicode="&#x110;" 
 />
    <glyph glyph-name="dslash" unicode="&#x111;" 
 />
    <glyph glyph-name="Eogonek" unicode="&#x118;" 
 />
    <glyph glyph-name="eogonek" unicode="&#x119;" 
 />
    <glyph glyph-name="Ecaron" unicode="&#x11a;" 
 />
    <glyph glyph-name="ecaron" unicode="&#x11b;" 
 />
    <glyph glyph-name="Gbreve" unicode="&#x11e;" 
 />
    <glyph glyph-name="gbreve" unicode="&#x11f;" 
 />
    <glyph glyph-name="Idot" unicode="&#x130;" 
 />
    <glyph glyph-name="dotlessi" unicode="&#x131;" 
 />
    <glyph glyph-name="Lacute" unicode="&#x139;" 
 />
    <glyph glyph-name="lacute" unicode="&#x13a;" 
 />
    <glyph glyph-name="Lcaron" unicode="&#x13d;" 
 />
    <glyph glyph-name="lcaron" unicode="&#x13e;" 
 />
    <glyph glyph-name="Ldot" unicode="&#x13f;" 
 />
    <glyph glyph-name="ldot" unicode="&#x140;" 
 />
    <glyph glyph-name="Lslash" unicode="&#x141;" 
 />
    <glyph glyph-name="lslash" unicode="&#x142;" 
 />
    <glyph glyph-name="Nacute" unicode="&#x143;" 
 />
    <glyph glyph-name="nacute" unicode="&#x144;" 
 />
    <glyph glyph-name="Ncaron" unicode="&#x147;" 
 />
    <glyph glyph-name="ncaron" unicode="&#x148;" 
 />
    <glyph glyph-name="Odblacute" unicode="&#x150;" 
 />
    <glyph glyph-name="odblacute" unicode="&#x151;" 
 />
    <glyph glyph-name="OE" unicode="&#x152;" 
 />
    <glyph glyph-name="oe" unicode="&#x153;" 
 />
    <glyph glyph-name="Racute" unicode="&#x154;" 
 />
    <glyph glyph-name="racute" unicode="&#x155;" 
 />
    <glyph glyph-name="Rcaron" unicode="&#x158;" 
 />
    <glyph glyph-name="rcaron" unicode="&#x159;" 
 />
    <glyph glyph-name="Sacute" unicode="&#x15a;" 
 />
    <glyph glyph-name="sacute" unicode="&#x15b;" 
 />
    <glyph glyph-name="Scedilla" unicode="&#x15e;" 
 />
    <glyph glyph-name="scedilla" unicode="&#x15f;" 
 />
    <glyph glyph-name="Scaron" unicode="&#x160;" 
 />
    <glyph glyph-name="scaron" unicode="&#x161;" 
 />
    <glyph glyph-name="Tcedilla" unicode="&#x162;" 
 />
    <glyph glyph-name="tcedilla" unicode="&#x163;" 
 />
    <glyph glyph-name="Tcaron" unicode="&#x164;" 
 />
    <glyph glyph-name="tcaron" unicode="&#x165;" 
 />
    <glyph glyph-name="Uring" unicode="&#x16e;" 
 />
    <glyph glyph-name="uring" unicode="&#x16f;" 
 />
    <glyph glyph-name="udblacute" unicode="&#x170;" 
 />
    <glyph glyph-name="Udblacute" unicode="&#x171;" 
 />
    <glyph glyph-name="Ydieresis" unicode="&#x178;" horiz-adv-x="500" 
d="M242 139l80 319h148l-179 -557q-8 -28 -21.5 -48t-31.5 -33q-19 -13 -38.5 -21t-40.5 -11h-4.5t-4.5 -1h-4h-4h-4.5t-4.5 -1h-4h-4q-13 0 -26 1.5t-26 3.5t-23 4.5t-18 5.5l-19 129q5 -2 10.5 -4.5t12.5 -4.5t13.5 -4t13.5 -3h5.5h4.5h3t3 -1h2.5h2.5h2h2h1.5h0.5h0.5
h1.5q14 1 27 6t24 13t17.5 20t6.5 29v2.5v2.5q-1 2 -1 3v3q-1 3 -1.5 5.5t-0.5 4.5v0.5v1.5q-1 0 -1 0.5v0.5v1v2q-1 0 -1.5 1t-0.5 2v2v2l-154 443h154l81 -319v0v0zM118 655h106v-94h-106v94v0v0zM266 655h105v-94h-105v94v0v0z" />
    <glyph glyph-name="Zacute" unicode="&#x179;" 
 />
    <glyph glyph-name="zacute" unicode="&#x17a;" 
 />
    <glyph glyph-name="Zdot" unicode="&#x17b;" 
 />
    <glyph glyph-name="zdot" unicode="&#x17c;" 
 />
    <glyph glyph-name="Zcaron" unicode="&#x17d;" 
 />
    <glyph glyph-name="zcaron" unicode="&#x17e;" 
 />
    <glyph glyph-name="florin" unicode="&#x192;" 
 />
    <glyph glyph-name="hungarumlaut" unicode="&#x2ba;" 
 />
    <glyph glyph-name="circumflex" unicode="&#x2c6;" horiz-adv-x="466" 
d="M366 350l74 -153q-9 -19 -20 -34.5t-22 -26.5q-12 -10 -24 -17.5t-25 -10.5q-2 -1 -3.5 -1.5t-3.5 -0.5q-2 -1 -3.5 -1h-3.5q-4 -1 -7 -1h-6h-3.5h-2.5h-1.5h-1.5h-2t-1 1h-2h-2q-10 2 -20.5 5.5t-19.5 9.5q-10 5 -19 11.5t-17 13.5q-13 11 -24 19.5t-22 13.5
q-10 5 -18.5 8t-15.5 3q-9 0 -16.5 -3.5t-14.5 -11.5q-7 -7 -13 -17t-12 -22q-1 -1 -2 -3t-2 -3q-1 -2 -1.5 -3.5t-1.5 -3.5q-1 -1 -1.5 -3t-1.5 -3q-1 -2 -1.5 -3.5t-1.5 -3.5l-74 155l6 8l6 8q2 3 4 5.5t4 5.5q1 1 2 2.5t2 2.5q12 14 24 23.5t24 15.5q11 5 22.5 8t22.5 3
q10 0 19.5 -2t18.5 -5q9 -4 17 -7.5t15 -7.5q2 -1 4 -2.5t4 -2.5q2 -2 4 -3l4 -2q4 -3 7.5 -4.5t6.5 -3.5l1.5 -1.5t1.5 -0.5q0 -1 0.5 -1.5t1.5 -0.5q2 -1 3.5 -2t2.5 -2q2 -1 3.5 -2.5t2.5 -3.5q2 -1 3.5 -2t3.5 -2q5 -4 11 -8.5t13 -7.5q6 -3 12 -4.5t11 -1.5h3.5t3.5 1
q2 0 3.5 0.5t3.5 1.5q4 2 7.5 4t7.5 5l3.5 3.5l3.5 3.5q4 4 7.5 8.5t6.5 10.5q5 9 10.5 20.5t10.5 24.5v1v0z" />
    <glyph glyph-name="caron" unicode="&#x2c7;" 
 />
    <glyph glyph-name="macron" unicode="&#x2c9;" 
 />
    <glyph glyph-name="breve" unicode="&#x2d8;" 
 />
    <glyph glyph-name="dotaccent" unicode="&#x2d9;" 
 />
    <glyph glyph-name="ring" unicode="&#x2da;" 
 />
    <glyph glyph-name="ogonek" unicode="&#x2db;" 
 />
    <glyph glyph-name="tilde" unicode="&#x2dc;" horiz-adv-x="459" 
d="M130 612h186l118 -348h-155l-55 211l-62 -211h-155l123 348v0v0z" />
    <glyph glyph-name="Gamma" unicode="&#x393;" 
 />
    <glyph glyph-name="Theta" unicode="&#x398;" 
 />
    <glyph glyph-name="summation" unicode="&#x3a3;" 
 />
    <glyph glyph-name="Phi" unicode="&#x3a6;" 
 />
    <glyph glyph-name="Omega" unicode="&#x3a9;" 
 />
    <glyph glyph-name="alpha" unicode="&#x3b1;" 
 />
    <glyph glyph-name="delta" unicode="&#x3b4;" 
 />
    <glyph glyph-name="epsilon" unicode="&#x3b5;" 
 />
    <glyph glyph-name="pi" unicode="&#x3c0;" 
 />
    <glyph glyph-name="sigma" unicode="&#x3c3;" 
 />
    <glyph glyph-name="tau" unicode="&#x3c4;" 
 />
    <glyph glyph-name="phi" unicode="&#x3c6;" 
 />
    <glyph glyph-name="glyph276" unicode="&#x2013;" 
 />
    <glyph glyph-name="emdash" unicode="&#x2014;" 
 />
    <glyph glyph-name="underscoredbl" unicode="&#x2017;" 
 />
    <glyph glyph-name="quoteleft" unicode="&#x2018;" horiz-adv-x="689" 
d="M4 161h143v-159h-143v159v0v0zM270 161h143v-159h-143v159v0v0zM523 161h142v-159h-142v159v0v0z" />
    <glyph glyph-name="quoteright" unicode="&#x2019;" horiz-adv-x="1042" 
d="M552 379h9q32 -1 56.5 -16.5t40.5 -45.5q17 -31 26 -64.5t11 -71.5v-5.5v-4.5v-2v-2q-1 -1 -1 -2v-2q-2 -34 -11 -64.5t-26 -57.5t-42 -40t-57 -13q-37 0 -64.5 14t-45.5 43q-17 29 -26.5 61.5t-10.5 67.5v1.5v1.5v1.5v1.5v1.5v1.5v0.5v1.5v3.5v2.5q2 35 11 67t26 61
t42 44t56 15l6 1v0v0zM552 300q-11 -1 -20.5 -10.5t-16.5 -27.5q-6 -18 -9 -38t-3 -43q0 -22 2.5 -40.5t7.5 -35.5q5 -16 15 -24t24 -8q13 0 22.5 8.5t16.5 24.5q7 17 11 35t5 37v1.5v1.5v0.5v1.5v3.5v2.5v0.5v1.5v2v2q-1 20 -4.5 37.5t-9.5 33.5q-7 17 -16.5 25t-21.5 8
l-3 1v0v0zM874 379h10q32 -1 56 -16.5t40 -45.5q17 -31 26 -64.5t11 -71.5v-5.5v-4.5v-2v-2q-1 -1 -1 -2v-2q-1 -34 -10.5 -64.5t-26.5 -57.5q-16 -27 -41.5 -40t-57.5 -13q-37 0 -64.5 14t-45.5 43q-17 29 -26.5 61.5t-10.5 67.5v1.5v1.5v1.5v1.5v1.5v1.5v0.5v1.5v3.5v2.5
q2 35 11 67t26 61t42 44t56 15l6 1v0v0zM874 300q-11 -1 -20.5 -10.5t-15.5 -27.5q-7 -18 -10 -38t-3 -43q0 -22 2.5 -40.5t8.5 -35.5q5 -16 14.5 -24t23.5 -8q13 0 22.5 8.5t16.5 24.5q8 17 11.5 35t4.5 37v1.5v1.5v0.5v1.5v3.5v2.5v0.5v1.5v2v2q0 20 -4 37.5t-10 33.5
q-7 17 -16.5 25t-21.5 8l-3 1v0v0zM274 2h-86l248 610h79l-241 -610v0v0zM144 619h9q32 -1 56.5 -16.5t40.5 -45.5q17 -31 26 -64.5t11 -71.5v-3v-3q-1 -2 -1 -3.5v-3.5v-6v-6q-2 -32 -12 -61.5t-27 -56.5q-16 -27 -40.5 -40t-56.5 -13q-37 0 -65 15t-46 45t-27 63t-9 70v4
v4v4t1 4q1 35 10.5 66.5t26.5 59.5q17 29 41 43.5t55 14.5l7 1v0v0zM144 540q-11 -1 -20.5 -10.5t-16.5 -27.5q-6 -18 -9 -38t-3 -43q0 -22 2.5 -40.5t7.5 -35.5q5 -16 15 -24t24 -8q13 0 22.5 8.5t16.5 24.5q7 17 11 35t5 37v1.5v1.5v0.5v1.5v3.5v2.5v0.5v1.5v2v2
q-1 20 -4.5 37.5t-9.5 33.5q-7 17 -16.5 25t-21.5 8l-3 1v0v0z" />
    <glyph glyph-name="quotesinglbase" unicode="&#x201a;" 
 />
    <glyph glyph-name="quotedblleft" unicode="&#x201c;" horiz-adv-x="795" 
d="M104 518h-99v94h315v-94h-98v-276h-118v276v0v0zM351 612h142l68 -226l56 226h154v-370h-98v247l-73 -247h-94l-68 247v-247h-87v370v0v0z" />
    <glyph glyph-name="quotedblright" unicode="&#x201d;" horiz-adv-x="277" 
d="M9 612h80v-175h-80v175v0v0zM170 612h79v-175h-79v175v0v0z" />
    <glyph glyph-name="quotedblbase" unicode="&#x201e;" 
 />
    <glyph glyph-name="dagger" unicode="&#x2020;" 
 />
    <glyph glyph-name="daggerdbl" unicode="&#x2021;" 
 />
    <glyph glyph-name="glyph287" unicode="&#x2022;" horiz-adv-x="237" 
d="M162 655l45 -101h-125l-73 101h153v0v0z" />
    <glyph glyph-name="ellipsis" unicode="&#x2026;" 
 />
    <glyph glyph-name="perthousand" unicode="&#x2030;" 
 />
    <glyph glyph-name="guilsinglleft" unicode="&#x2039;" horiz-adv-x="451" 
d="M5 321l421 190v-182l-310 -94l310 -89v-188l-421 195v168v0v0z" />
    <glyph glyph-name="guilsinglright" unicode="&#x203a;" horiz-adv-x="451" 
d="M314 235l-309 86v190l421 -190v-175l-421 -188v181l309 96v0v0z" />
    <glyph glyph-name="exclamdbl" unicode="&#x203c;" 
 />
    <glyph glyph-name="nsuperior" unicode="&#x207f;" 
 />
    <glyph glyph-name="franc" unicode="&#x20a3;" 
 />
    <glyph glyph-name="peseta" unicode="&#x20a7;" 
 />
    <glyph glyph-name="trademark" unicode="&#x2122;" 
 />
    <glyph glyph-name="arrowleft" unicode="&#x2190;" 
 />
    <glyph glyph-name="arrowup" unicode="&#x2191;" 
 />
    <glyph glyph-name="arrowright" unicode="&#x2192;" horiz-adv-x="425" 
 />
    <glyph glyph-name="arrowdown" unicode="&#x2193;" 
 />
    <glyph glyph-name="arrowboth" unicode="&#x2194;" 
 />
    <glyph glyph-name="arrowupdn" unicode="&#x2195;" 
 />
    <glyph glyph-name="arrowupdnbase" unicode="&#x21a8;" 
 />
    <glyph glyph-name="partialdiff" unicode="&#x2202;" 
 />
    <glyph glyph-name="Delta" unicode="&#x2206;" 
 />
    <glyph glyph-name="product" unicode="&#x220f;" 
 />
    <glyph glyph-name="minus" unicode="&#x2212;" 
 />
    <glyph glyph-name="fraction" unicode="&#x2215;" horiz-adv-x="435" 
d="M255 619h154l-253 -617h-153l252 617v0v0z" />
    <glyph glyph-name="periodcentered" unicode="&#x2219;" horiz-adv-x="311" 
d="M11 475h272v-322h-272v322v0v0z" />
    <glyph glyph-name="radical" unicode="&#x221a;" 
 />
    <glyph glyph-name="infinity" unicode="&#x221e;" 
 />
    <glyph glyph-name="orthogonal" unicode="&#x221f;" 
 />
    <glyph glyph-name="intersection" unicode="&#x2229;" 
 />
    <glyph glyph-name="integral" unicode="&#x222b;" 
 />
    <glyph glyph-name="approxequal" unicode="&#x2248;" 
 />
    <glyph glyph-name="notequal" unicode="&#x2260;" 
 />
    <glyph glyph-name="equivalence" unicode="&#x2261;" 
 />
    <glyph glyph-name="lessequal" unicode="&#x2264;" 
 />
    <glyph glyph-name="greaterequal" unicode="&#x2265;" 
 />
    <glyph glyph-name="house" unicode="&#x2302;" 
 />
    <glyph glyph-name="revlogicalnot" unicode="&#x2310;" 
 />
    <glyph glyph-name="integraltp" unicode="&#x2320;" 
 />
    <glyph glyph-name="integralbt" unicode="&#x2321;" 
 />
    <glyph glyph-name="2500" unicode="&#x2500;" 
 />
    <glyph glyph-name="2502" unicode="&#x2502;" 
 />
    <glyph glyph-name="250c" unicode="&#x250c;" 
 />
    <glyph glyph-name="2510" unicode="&#x2510;" 
 />
    <glyph glyph-name="2514" unicode="&#x2514;" 
 />
    <glyph glyph-name="2518" unicode="&#x2518;" 
 />
    <glyph glyph-name="251c" unicode="&#x251c;" 
 />
    <glyph glyph-name="2524" unicode="&#x2524;" 
 />
    <glyph glyph-name="252c" unicode="&#x252c;" 
 />
    <glyph glyph-name="2534" unicode="&#x2534;" 
 />
    <glyph glyph-name="253c" unicode="&#x253c;" 
 />
    <glyph glyph-name="2550" unicode="&#x2550;" 
 />
    <glyph glyph-name="2551" unicode="&#x2551;" 
 />
    <glyph glyph-name="2552" unicode="&#x2552;" 
 />
    <glyph glyph-name="2553" unicode="&#x2553;" 
 />
    <glyph glyph-name="2554" unicode="&#x2554;" 
 />
    <glyph glyph-name="2555" unicode="&#x2555;" 
 />
    <glyph glyph-name="2556" unicode="&#x2556;" 
 />
    <glyph glyph-name="2557" unicode="&#x2557;" 
 />
    <glyph glyph-name="2558" unicode="&#x2558;" 
 />
    <glyph glyph-name="2559" unicode="&#x2559;" 
 />
    <glyph glyph-name="255a" unicode="&#x255a;" 
 />
    <glyph glyph-name="255b" unicode="&#x255b;" 
 />
    <glyph glyph-name="255c" unicode="&#x255c;" 
 />
    <glyph glyph-name="255d" unicode="&#x255d;" 
 />
    <glyph glyph-name="255e" unicode="&#x255e;" 
 />
    <glyph glyph-name="255f" unicode="&#x255f;" 
 />
    <glyph glyph-name="2560" unicode="&#x2560;" 
 />
    <glyph glyph-name="2561" unicode="&#x2561;" 
 />
    <glyph glyph-name="2562" unicode="&#x2562;" 
 />
    <glyph glyph-name="2563" unicode="&#x2563;" 
 />
    <glyph glyph-name="2564" unicode="&#x2564;" 
 />
    <glyph glyph-name="2565" unicode="&#x2565;" 
 />
    <glyph glyph-name="2566" unicode="&#x2566;" 
 />
    <glyph glyph-name="2567" unicode="&#x2567;" 
 />
    <glyph glyph-name="2568" unicode="&#x2568;" 
 />
    <glyph glyph-name="2569" unicode="&#x2569;" 
 />
    <glyph glyph-name="256a" unicode="&#x256a;" 
 />
    <glyph glyph-name="256b" unicode="&#x256b;" 
 />
    <glyph glyph-name="256c" unicode="&#x256c;" 
 />
    <glyph glyph-name="upblock" unicode="&#x2580;" 
 />
    <glyph glyph-name="dnblock" unicode="&#x2584;" 
 />
    <glyph glyph-name="block" unicode="&#x2588;" 
 />
    <glyph glyph-name="lfblock" unicode="&#x258c;" 
 />
    <glyph glyph-name="rtblock" unicode="&#x2590;" 
 />
    <glyph glyph-name="ltshade" unicode="&#x2591;" 
 />
    <glyph glyph-name="shade" unicode="&#x2592;" 
 />
    <glyph glyph-name="dkshade" unicode="&#x2593;" 
 />
    <glyph glyph-name="filledbox" unicode="&#x25a0;" horiz-adv-x="425" 
 />
    <glyph glyph-name="filledrect" unicode="&#x25ac;" 
 />
    <glyph glyph-name="triagup" unicode="&#x25b2;" 
 />
    <glyph glyph-name="triagrt" unicode="&#x25ba;" 
 />
    <glyph glyph-name="triagdn" unicode="&#x25bc;" 
 />
    <glyph glyph-name="triaglf" unicode="&#x25c4;" 
 />
    <glyph glyph-name="lozenge" unicode="&#x25ca;" 
 />
    <glyph glyph-name="circle" unicode="&#x25cb;" 
 />
    <glyph glyph-name="invbullet" unicode="&#x25d8;" 
 />
    <glyph glyph-name="invcircle" unicode="&#x25d9;" 
 />
    <glyph glyph-name="smileface" unicode="&#x263a;" 
 />
    <glyph glyph-name="invsmileface" unicode="&#x263b;" 
 />
    <glyph glyph-name="sun" unicode="&#x263c;" 
 />
    <glyph glyph-name="female" unicode="&#x2640;" 
 />
    <glyph glyph-name="male" unicode="&#x2642;" 
 />
    <glyph glyph-name="spade" unicode="&#x2660;" 
 />
    <glyph glyph-name="club" unicode="&#x2663;" 
 />
    <glyph glyph-name="heart" unicode="&#x2665;" 
 />
    <glyph glyph-name="diamond" unicode="&#x2666;" 
 />
    <glyph glyph-name="musicalnote" unicode="&#x266a;" 
 />
    <glyph glyph-name="musicalnotedbl" unicode="&#x266b;" 
 />
    <glyph glyph-name="apple" unicode="&#xf000;" 
 />
    <glyph glyph-name="fi" unicode="&#xf001;" 
 />
    <glyph glyph-name="fl" unicode="&#xf002;" 
 />
    <glyph glyph-name="degree" 
 />
    <glyph glyph-name="bullet" horiz-adv-x="237" 
d="M162 655l45 -101h-125l-73 101h153v0v0z" />
    <glyph glyph-name="endash" 
 />
    </font>
</defs>
</svg>
